<svg width="40" height="40" viewBox="0 0 40 40" fill="none" xmlns="http://www.w3.org/2000/svg">
<circle cx="19.9999" cy="20" r="19.5" fill="white" stroke="black"/>
<path d="M20.764 28.3324C20.9288 28.3871 21.1028 28.4389 21.2857 28.4861C22.8869 28.8996 24.0663 28.6783 24.0663 28.6783C24.0663 28.6783 29.7765 28.1049 29.5992 20.7536C29.4219 13.4023 25.4052 12.5312 25.4052 12.5312C25.4052 12.5312 23.8735 12.0711 21.8194 13.2656" fill="white"/>
<path d="M24.2575 18.46C22.0586 10.7197 17.5646 10.8956 17.5646 10.8956C17.5646 10.8956 13.0706 10.7197 10.8717 18.46C8.67271 26.2004 14.5659 28.37 14.5659 28.37C16.3511 29.1644 18.778 29.1632 20.5633 28.37C20.5633 28.3699 26.4565 26.2003 24.2575 18.46Z" fill="white"/>
<path d="M17.5646 26.4131C19.7411 26.4131 21.5055 24.6487 21.5055 22.4722C21.5055 20.2957 19.7411 18.5312 17.5646 18.5312C15.388 18.5312 13.6236 20.2957 13.6236 22.4722C13.6236 24.6487 15.388 26.4131 17.5646 26.4131Z" fill="#2F3C91"/>
<path d="M29.9958 20.7439C29.9703 19.6846 29.8637 18.6947 29.6791 17.8015C29.576 17.3026 28.7988 17.4625 28.902 17.9621C29.0771 18.8088 29.1782 19.7512 29.2026 20.763C29.2413 22.3669 28.9918 23.7592 28.4612 24.9013C27.6131 26.7267 25.9545 27.9293 23.9941 28.288C23.984 28.2899 23.0516 28.4535 21.7543 28.1871C22.2883 27.8416 22.9482 27.317 23.5458 26.5642C25.4051 24.2216 25.424 21.1143 24.6391 18.3515C24.1444 16.6101 23.4411 14.8865 22.3535 13.4264C24.0414 12.5695 25.2401 12.8964 25.2912 12.911C25.3027 12.9146 25.3071 12.9157 25.3188 12.9182C25.375 12.9312 26.7061 13.2553 27.8039 15.0422C28.0727 15.4797 28.7461 15.0601 28.4799 14.6269C27.2443 12.6157 25.6857 12.1903 25.5046 12.1468C25.3292 12.0982 23.8278 11.7325 21.8433 12.7978C20.8641 11.6906 19.5174 10.6757 18.0045 10.5191C16.8781 10.4026 15.7518 10.8313 14.8241 11.444C13.9689 12.0088 13.1928 12.7978 12.5173 13.7891C11.6853 15.0098 11.0033 16.5449 10.49 18.3514C9.70512 21.1142 9.72408 24.2214 11.5834 26.5641C12.7839 28.0766 14.2362 28.6681 14.413 28.7361C16.3489 29.6088 18.774 29.4887 20.7197 28.7347C21.8001 29.0812 22.9952 29.2645 24.1227 29.071C26.3108 28.8179 28.2515 27.2157 29.1686 25.2615C29.7595 24.0027 30.0378 22.4827 29.9958 20.7439ZM14.7342 28.0107C14.7245 28.0061 14.7138 28.0017 14.7038 27.9979C14.6898 27.9927 13.2944 27.4604 12.1817 26.0416C10.5052 23.9037 10.5429 21.069 11.2532 18.5684C12.3444 14.7275 14.0068 12.9531 15.2093 12.141C16.2089 11.4658 17.1383 11.2916 17.5182 11.2916C17.5289 11.2916 17.5392 11.2917 17.549 11.292C17.5594 11.2924 17.5697 11.2924 17.5801 11.292C17.6218 11.2906 21.7864 11.2136 23.8758 18.5684C24.5863 21.0691 24.6239 23.9037 22.9474 26.0415C21.8347 27.4604 20.4393 27.9927 20.4262 27.9976C18.6719 28.6432 16.4782 28.8183 14.7342 28.0107Z" fill="black"/>
<path d="M21.9022 22.4722C21.9022 20.0804 19.9563 18.1345 17.5645 18.1345C16.8944 18.1345 16.2517 18.2833 15.6542 18.5768C15.197 18.8014 15.5462 19.5138 16.0041 19.289C16.4917 19.0494 17.0167 18.9279 17.5645 18.9279C19.5188 18.9279 21.1087 20.5179 21.1087 22.4722C21.1087 24.4264 19.5188 26.0164 17.5645 26.0164C15.6102 26.0164 14.0203 24.4264 14.0203 22.4722C14.0203 22.1154 14.0731 21.7634 14.1771 21.4261C14.3272 20.9394 13.5692 20.7049 13.4189 21.1923C13.2915 21.6054 13.2269 22.036 13.2269 22.4722C13.2269 24.864 15.1728 26.8098 17.5646 26.8098C19.9564 26.8098 21.9022 24.864 21.9022 22.4722Z" fill="black"/>
<path d="M14.2051 20.1023C14.2693 20.2589 14.432 20.3584 14.6004 20.3463C14.7726 20.334 14.9201 20.2057 14.958 20.0375C15.0358 19.6916 14.6337 19.4224 14.343 19.6266C14.1932 19.7318 14.1346 19.933 14.2051 20.1023Z" fill="black"/>
<path d="M28.4799 16.1083C28.2858 16.3993 28.5542 16.7934 28.8967 16.7152C29.0614 16.6776 29.1882 16.5359 29.2045 16.3672C29.2205 16.2023 29.1291 16.0407 28.9793 15.9698C28.8047 15.8872 28.5861 15.9459 28.4799 16.1083Z" fill="black"/>
</svg>
