<svg width="95" height="116" viewBox="0 0 95 116" fill="none" xmlns="http://www.w3.org/2000/svg">
<path d="M78.673 43.9194C78.673 43.9194 84.6425 41.0016 84.3886 41.5086C84.1347 42.0157 81.8485 47.3443 81.8485 47.3443L89.0888 44.8075L87.5641 50.5156L93.7875 48.1048L90.8658 54.4475L80.1962 52.0368L78.673 43.9194Z" fill="white"/>
<path d="M1.44809 78.4701C1.92761 77.7525 12.6374 77.9749 13.7701 78.7533C15.0498 79.6325 16.5314 89.0086 15.8233 89.575C14.5807 90.5683 1.02201 89.6461 0.242611 89.0798C-0.533823 88.5134 0.739945 79.5317 1.44809 78.4701Z" fill="#2B2B22"/>
<path d="M5.48464 60.2237C5.48464 60.2237 5.83946 59.8693 4.91753 60.2949C3.9971 60.7189 2.08496 78.5415 2.08496 78.5415L3.57251 78.6824C3.57251 78.6824 4.06836 74.58 4.49295 69.6295C4.91753 64.679 6.05027 59.303 6.05027 59.303L5.48464 60.2237Z" fill="#2B2B22"/>
<path d="M67.5281 109.663L61.0925 111.27L61.0079 112.115L66.7665 110.762L59.6539 114.821L59.9924 115.328C59.9924 115.328 67.6988 111.1 67.6127 111.353C67.5281 111.607 65.3265 115.582 65.3265 115.582L66.3419 115.497L68.6505 110.642L67.5281 109.663Z" fill="#EF5C3F"/>
<path d="M45.0041 109.241L35.2653 109.917L35.1806 110.679L43.2256 110.594L33.5714 112.624L33.656 113.469L43.3102 111.777L41.447 114.483L42.2933 114.569L46.1888 110.341L45.0041 109.241Z" fill="#EF5C3F"/>
<path d="M62.6898 97.9802L67.6275 110.958L68.6504 110.643L64.9226 96.6799L62.6898 97.9802Z" fill="#EF5C3F"/>
<path d="M42.4639 95.2017L45.004 110.424H46.1887L44.8348 95.2017H42.4639Z" fill="#EF5C3F"/>
<path d="M20.0231 49.0283C10.8766 51.058 2.74854 64.7575 2.74854 64.7575L7.32104 63.7434L3.76399 68.6479H10.7074L7.998 72.3693C7.998 72.3693 18.8369 73.2144 25.1033 69.1549C31.3697 65.0955 20.0231 49.0283 20.0231 49.0283Z" fill="white"/>
<path d="M29.8169 4.11367C31.1426 3.57993 32.4223 3.01505 33.8846 3.28488C35.1465 3.51766 36.2406 4.26638 37.0586 5.23157C37.7787 6.07963 38.1617 7.06261 38.3799 8.13751C38.5595 9.02412 38.8045 10.354 38.2582 11.1606C38.1038 11.3874 38.472 11.598 38.6234 11.3741C39.2083 10.5097 38.9945 9.19759 38.8283 8.23981C38.6204 7.03889 38.1929 5.99216 37.4357 5.02845C36.6058 3.9743 35.4256 3.20779 34.1177 2.90237C32.547 2.53468 31.1366 3.13069 29.704 3.70595C29.4546 3.80677 29.563 4.21597 29.8169 4.11367Z" fill="#964022"/>
<path d="M32.6212 1.6689C31.9769 0.282648 30.2028 1.41537 29.9281 2.48879C30.0395 1.73414 29.6312 -0.372672 28.402 0.0572891C27.4801 0.380501 27.7874 1.38276 28.2268 2.13445C27.5588 1.45689 26.4156 1.11885 25.7802 1.71042C24.453 2.94692 26.288 4.27387 27.4593 3.94325C26.3874 4.53185 25.2191 6.05451 26.8625 6.67869C27.4756 6.91146 28.2506 6.66979 28.7464 6.23539C29.1799 5.85583 29.2482 5.57117 29.2556 5.13676C29.3729 6.22649 30.1627 7.51934 31.478 6.68017C33.1378 5.62306 31.1856 4.57188 30.4477 3.88543C31.4305 3.60076 33.2595 3.04329 32.6212 1.6689Z" fill="#5794FF"/>
<path d="M29.6759 3.6142C29.6759 4.15091 29.3344 4.5868 28.9143 4.5868C28.4942 4.5868 28.1527 4.15091 28.1527 3.6142C28.1527 3.07749 28.4942 2.6416 28.9143 2.6416C29.3344 2.6416 29.6759 3.07749 29.6759 3.6142Z" fill="#FFA21A"/>
<path d="M49.4045 30.7638C49.0898 29.1967 48.5375 27.4013 47.8828 25.8771C46.9876 23.7955 46.4799 21.6516 44.835 20.0193C43.4988 18.6938 41.9653 17.5433 40.3471 16.5722C39.7176 16.1941 38.9917 15.9094 38.4631 15.3905C38.0252 14.9591 37.7179 14.4105 37.2309 13.9939C36.0195 12.959 32.6555 11.7314 32.6406 11.8174L30.2698 11.1413C26.0268 10.698 30.9942 16.8924 31.8746 17.9065C34.48 20.9059 37.8367 23.3478 40.5995 26.2107C42.4849 28.1633 44.4148 30.279 46.8866 31.5007C48.0342 32.0686 49.7741 32.6008 49.4045 30.7638Z" fill="#D38318"/>
<path d="M37.6361 12.4935C30.9392 10.9975 21.3087 19.5108 17.3122 32.6201C12.5705 48.1818 11.8935 70.8466 27.1357 79.8106C40.4123 87.6181 64.2249 91.8198 77.0977 80.1486C86.3125 71.7925 94.0338 50.3805 94.0338 50.3805L90.1382 51.2256L91.8321 47.1662L83.7026 49.7029C83.7026 49.7029 86.9197 44.2899 86.4119 44.4604C85.9042 44.6294 79.6378 45.645 79.6378 45.645L82.0087 40.5714C82.0087 40.5714 71.339 48.8593 46.9504 43.1082C43.1023 42.2008 41.9533 35.7351 43.9025 31.7765C48.8135 21.797 45.3574 14.2193 37.6361 12.4935Z" fill="#964022"/>
<path d="M33.7405 36.8499C33.7405 36.8499 38.313 33.1285 38.4822 33.6356C38.6515 34.1426 42.2085 40.0627 42.2085 40.0627L43.319 38.6365C42.7192 36.368 42.8914 33.6578 43.9024 31.6059C48.8134 21.6263 45.3573 14.0486 37.636 12.3243C30.9718 10.8358 21.4051 19.2571 17.3745 32.2567L18.3291 34.8202L23.5801 31.7764L25.7817 36.3428L30.1849 33.13L33.7405 36.8499Z" fill="white"/>
<path d="M24.9608 19.5331C24.9608 19.5331 26.0535 19.0394 27.2129 17.9185C28.3724 16.7977 28.6975 15.447 28.6975 15.447C28.6975 15.447 23.8741 13.5463 23.2536 14.206C22.633 14.8673 24.9608 19.5331 24.9608 19.5331Z" fill="#E8B618"/>
<path d="M33.8475 17.6292C33.8475 17.6292 34.5007 19.518 35.6216 20.3453C36.7425 21.1711 38.1439 20.8183 38.1439 20.8183L33.8475 17.6292Z" fill="#564336"/>
<path d="M40.4494 51.5712C36.0002 55.2304 35.6379 65.8 42.6704 71.7142C49.7013 77.6284 65.9857 77.4431 65.9857 77.4431C65.9857 77.4431 61.7294 73.0085 62.2846 73.0085C62.8398 73.0085 67.4658 72.454 67.4658 72.454L62.4702 69.4977L68.9459 65.8015L64.32 63.029L69.5011 61.92C69.5011 61.92 63.5806 56.3764 58.0283 53.0494C49.8602 48.1553 43.5953 48.9841 40.4494 51.5712Z" fill="white"/>
<path d="M46.6981 79.8106L35.6899 79.1345C37.1033 81.5779 37.3675 85.4979 38.1885 88.3046C38.8803 90.6664 40.5638 96.9067 43.6502 97.2359C49.8142 97.8942 44.2322 81.4815 46.6981 79.8106Z" fill="#964022"/>
<path d="M64.8587 82.623L53.8431 83.1657C55.5177 85.4371 56.214 89.3052 57.3408 92.0036C58.2894 94.275 60.6544 100.29 63.7571 100.278C69.9567 100.253 62.5917 84.5564 64.8587 82.623Z" fill="#964022"/>
<path d="M29.5065 11.1265C29.5065 11.1265 37.2664 13.4542 41.6741 17.8576C47.8515 24.0268 49.5365 31.6919 49.5365 31.6919L48.6012 22.7176C48.6012 22.7176 53.9709 14.498 49.725 10.3778C43.1736 4.02175 36.2465 11.125 36.2465 11.125H29.5065V11.1265Z" fill="#FFA21A"/>
<path d="M43.9872 12.9176C40.6751 10.3096 37.6778 9.896 37.6778 9.896L36.2466 11.1266C36.2466 11.1266 39.1609 11.8175 42.0395 14.3557C44.9181 16.8925 48.6013 22.7177 48.6013 22.7177L49.6598 20.7829C49.6613 20.7814 48.3905 16.384 43.9872 12.9176Z" fill="#964022"/>
<path d="M9.5212 61.143C7.68032 58.1718 6.05174 59.3045 6.05174 59.3045L4.91901 60.2949C4.91901 60.2949 7.1147 58.8093 8.60225 62.0637C9.82554 64.7413 12.284 80.1695 12.284 80.1695L13.7715 80.0287C13.7701 80.0257 11.3502 64.0919 9.5212 61.143Z" fill="#2B2B22"/>
<path d="M5.54251 82.5164C5.54251 82.5164 5.2159 84.8099 6.55796 85.0531C8.42111 85.3911 8.42111 82.6009 8.42111 82.6009L5.54251 82.5164Z" fill="#FFA21A"/>
<path d="M40.1109 62.1167C40.7656 62.9277 41.7395 63.4437 42.3645 64.2725C42.5263 64.4874 42.8945 64.2769 42.7297 64.059C42.0795 63.1976 41.0893 62.6579 40.4108 61.8172C40.2401 61.6052 39.9417 61.9062 40.1109 62.1167Z" fill="#964022"/>
<path d="M39.7397 57.3367C40.4271 58.3672 41.542 58.9884 42.5248 59.6956C42.7475 59.8557 42.9583 59.488 42.7386 59.3309C41.8181 58.6681 40.7478 58.0869 40.1049 57.1232C39.955 56.8979 39.5883 57.1099 39.7397 57.3367Z" fill="#964022"/>
<path d="M41.7853 54.145C42.0585 54.145 42.0585 53.7224 41.7853 53.7224C41.5122 53.7209 41.5122 54.145 41.7853 54.145Z" fill="#964022"/>
<path d="M41.6786 54.1151C42.7208 54.6444 43.6858 55.3101 44.7784 55.743C45.0323 55.8438 45.1422 55.4346 44.8913 55.3353C43.8357 54.9172 42.9019 54.2619 41.8939 53.7503C41.649 53.6273 41.4352 53.992 41.6786 54.1151Z" fill="#964022"/>
<path d="M48.1365 51.7753C48.4097 51.7753 48.4097 51.3528 48.1365 51.3528C47.8633 51.3528 47.8633 51.7753 48.1365 51.7753Z" fill="#964022"/>
<path d="M48.0296 51.7474C49.2618 52.2767 50.4866 52.8446 51.8064 53.1218C52.0721 53.1782 52.1864 52.7704 51.9192 52.7141C50.635 52.4443 49.4429 51.8972 48.2434 51.3827C47.9955 51.2759 47.7787 51.6392 48.0296 51.7474Z" fill="#964022"/>
<path d="M49.639 56.3983C50.6841 57.0433 51.9579 57.3279 52.8991 58.1419C53.104 58.3198 53.4053 58.0218 53.199 57.8424C52.2251 57.0003 50.935 56.7008 49.8543 56.0336C49.6197 55.8898 49.4074 56.256 49.639 56.3983Z" fill="#964022"/>
<path d="M48.7065 61.5581C49.67 62.1571 50.7642 62.55 51.6282 63.3016C51.8331 63.4796 52.1344 63.1816 51.9281 63.0022C51.0344 62.2253 49.918 61.8131 48.9218 61.1934C48.6887 61.0481 48.4764 61.4143 48.7065 61.5581Z" fill="#964022"/>
<path d="M46.7587 67.3916C47.939 68.1062 49.3033 68.6192 50.1881 69.7267C50.3588 69.9402 50.6557 69.6393 50.488 69.4272C49.5809 68.2916 48.1839 67.7593 46.974 67.0269C46.7394 66.8846 46.5257 67.2508 46.7587 67.3916Z" fill="#964022"/>
<path d="M43.7525 69.8964C44.6225 70.6704 45.5593 71.3613 46.4619 72.0952C46.6712 72.2657 46.9726 71.9677 46.7618 71.7957C45.8592 71.0618 44.9209 70.3709 44.0524 69.5969C43.849 69.4175 43.5492 69.7155 43.7525 69.8964Z" fill="#964022"/>
<path d="M53.5552 73.5109C53.8284 73.5109 53.8284 73.0884 53.5552 73.0884C53.2835 73.0869 53.2835 73.5109 53.5552 73.5109Z" fill="#964022"/>
<path d="M53.4499 73.4811C54.8112 74.2239 56.3804 74.4137 57.7685 75.0883C58.0134 75.2069 58.2272 74.8421 57.9823 74.7235C56.5927 74.0504 55.0235 73.8577 53.6636 73.1164C53.4231 72.9859 53.2094 73.3506 53.4499 73.4811Z" fill="#964022"/>
<path d="M57.8189 71.3049C58.6324 71.631 59.4356 71.978 60.2744 72.2345C60.5356 72.3145 60.647 71.9068 60.3872 71.8267C59.5484 71.5688 58.7438 71.2233 57.9317 70.8971C57.6778 70.7948 57.568 71.204 57.8189 71.3049Z" fill="#964022"/>
<path d="M54.7696 66.9057C55.65 67.1681 56.5363 67.4038 57.4508 67.5046C57.7225 67.5343 57.7195 67.1117 57.4508 67.0821C56.5749 66.9857 55.7242 66.7485 54.8825 66.4979C54.6197 66.4208 54.5083 66.8286 54.7696 66.9057Z" fill="#964022"/>
<path d="M60.8668 65.976C61.6788 66.1702 62.4285 66.5453 63.1872 66.8848C63.4336 66.9946 63.6503 66.6313 63.4009 66.5201C62.6097 66.1672 61.8258 65.7714 60.9796 65.5683C60.7139 65.5045 60.601 65.9122 60.8668 65.976Z" fill="#964022"/>
<path d="M55.7865 60.9872C57.1404 61.3594 58.4038 61.991 59.8231 62.0948C60.0947 62.114 60.0933 61.6915 59.8231 61.6722C58.4469 61.5714 57.2117 60.9413 55.8993 60.581C55.6351 60.5069 55.5237 60.9146 55.7865 60.9872Z" fill="#964022"/>
<path d="M57.3661 55.5815C57.6392 55.5815 57.6392 55.1589 57.3661 55.1589C57.0929 55.1589 57.0929 55.5815 57.3661 55.5815Z" fill="#964022"/>
<path d="M57.2593 55.5536C59.069 56.5306 61.0078 57.2823 62.6364 58.5647C62.8487 58.7323 63.15 58.4343 62.9363 58.2653C61.275 56.9576 59.3184 56.1851 57.4745 55.1873C57.234 55.0584 57.0188 55.4231 57.2593 55.5536Z" fill="#964022"/>
<path d="M18.7642 38.2113C18.644 39.5887 18.6306 40.9764 18.3901 42.3404C18.3441 42.6073 18.7509 42.7214 18.7984 42.4531C19.0448 41.0505 19.0626 39.6272 19.1873 38.2113C19.2126 37.9385 18.788 37.9415 18.7642 38.2113Z" fill="white"/>
<path d="M23.2106 38.5906C23.3323 39.9827 23.3367 41.3794 23.3382 42.776C23.3382 43.0488 23.7613 43.0488 23.7613 42.776C23.7613 41.3794 23.7554 39.9827 23.6337 38.5906C23.6099 38.3222 23.1868 38.3192 23.2106 38.5906Z" fill="white"/>
<path d="M30.9659 41.946C31.4588 43.1618 32.0882 44.3316 32.3629 45.6245C32.4193 45.8913 32.8275 45.7787 32.7711 45.5118C32.4965 44.2189 31.867 43.0491 31.3741 41.8334C31.2732 41.5843 30.8635 41.6925 30.9659 41.946Z" fill="white"/>
<path d="M35.488 40.4511C35.7611 40.4511 35.7611 40.0286 35.488 40.0286C35.2148 40.0286 35.2148 40.4511 35.488 40.4511Z" fill="white"/>
<path d="M35.3379 40.3893C35.914 41.1232 36.3668 41.949 36.8285 42.7571C36.9635 42.9943 37.3302 42.7808 37.1937 42.5436C36.7127 41.7029 36.2361 40.8549 35.6363 40.0913C35.4701 39.8764 35.1717 40.1773 35.3379 40.3893Z" fill="white"/>
<path d="M25.2503 51.9664C25.6586 53.3126 26.1322 54.6396 26.3935 56.0258C26.4439 56.2942 26.8522 56.18 26.8017 55.9131C26.5404 54.5284 26.0669 53.1999 25.6586 51.8537C25.5799 51.5928 25.1702 51.704 25.2503 51.9664Z" fill="white"/>
<path d="M19.1457 52.9248C19.1546 54.4816 19.4055 56.0161 19.6608 57.5476C19.7054 57.816 20.1136 57.7018 20.0691 57.435C19.8197 55.9405 19.5777 54.443 19.5688 52.9248C19.5673 52.652 19.1442 52.652 19.1457 52.9248Z" fill="white"/>
<path d="M23.7478 67.7465C24.5346 68.8006 25.2636 69.8963 25.9064 71.0438C26.04 71.281 26.4052 71.069 26.2716 70.8303C25.6288 69.6828 24.8998 68.5856 24.113 67.533C23.9512 67.3165 23.583 67.527 23.7478 67.7465Z" fill="white"/>
<path d="M30.5117 64.1094C31.3015 65.0124 32.262 65.7433 33.0518 66.6462C33.2314 66.8523 33.5298 66.5513 33.3517 66.3467C32.5619 65.4438 31.6014 64.7129 30.8116 63.81C30.632 63.6054 30.3336 63.9048 30.5117 64.1094Z" fill="white"/>
<path d="M34.0686 51.0449C34.5852 51.675 35.2132 52.1865 35.8471 52.6935C36.0579 52.8626 36.3593 52.5646 36.147 52.394C35.5131 51.887 34.8851 51.3755 34.3685 50.7454C34.1948 50.5348 33.8964 50.8358 34.0686 51.0449Z" fill="white"/>
<path d="M43.3397 46.8592C43.9988 47.3856 44.6609 47.9 45.4151 48.287C45.6571 48.4115 45.8724 48.0468 45.6289 47.9223C44.9074 47.5516 44.2705 47.0638 43.6395 46.5597C43.4287 46.3907 43.1274 46.6887 43.3397 46.8592Z" fill="white"/>
<path d="M54.0526 46.3848C55.3888 47.1587 56.9639 47.2966 58.4782 47.301C58.7514 47.3025 58.7514 46.8785 58.4782 46.8785C57.0381 46.874 55.5387 46.7554 54.2664 46.02C54.0289 45.8821 53.8166 46.2483 54.0526 46.3848Z" fill="white"/>
<path d="M62.2876 51.8674C62.5607 51.8674 62.5607 51.4448 62.2876 51.4448C62.0159 51.4448 62.0159 51.8674 62.2876 51.8674Z" fill="white"/>
<path d="M62.2876 51.8678C63.8983 51.8604 65.4824 51.6113 67.0441 51.2258C67.3084 51.1606 67.197 50.7528 66.9313 50.8181C65.4052 51.1947 63.8627 51.4363 62.2876 51.4452C62.0159 51.4467 62.0159 51.8693 62.2876 51.8678Z" fill="white"/>
<path d="M71.1786 47.5545C72.4004 47.5426 73.6029 47.3025 74.7905 47.0401C75.0578 46.9807 74.9435 46.573 74.6777 46.6323C73.5257 46.8873 72.3618 47.1216 71.1771 47.132C70.9054 47.1349 70.9054 47.5575 71.1786 47.5545Z" fill="white"/>
<path d="M68.7661 57.7032C69.9345 57.5579 71.0286 57.0879 72.1955 56.9426C72.4627 56.9085 72.4657 56.4859 72.1955 56.52C71.0271 56.6653 69.933 57.1353 68.7661 57.2806C68.4989 57.3132 68.4959 57.7358 68.7661 57.7032Z" fill="white"/>
<path d="M38.2596 72.3543C39.1503 73.1089 39.9134 74.0074 40.6735 74.891C40.8517 75.0986 41.1501 74.7976 40.9734 74.5915C40.2148 73.7079 39.4517 72.8094 38.5595 72.0548C38.3516 71.8813 38.0518 72.1778 38.2596 72.3543Z" fill="white"/>
<path d="M32.164 75.0184C33.0667 75.7775 34.1103 76.3483 34.958 77.1742C35.154 77.3654 35.4524 77.0659 35.2579 76.8747C34.4087 76.0474 33.3665 75.4765 32.4639 74.7189C32.2546 74.5455 31.9547 74.8435 32.164 75.0184Z" fill="white"/>
<path d="M28.2253 77.3015C29.0433 78.0947 30.0558 78.6033 31.1128 79.005C31.3682 79.1029 31.478 78.6937 31.2257 78.5973C30.2384 78.2222 29.2883 77.7448 28.5252 77.002C28.3292 76.8122 28.0294 77.1117 28.2253 77.3015Z" fill="white"/>
<path d="M49.7843 84.0791C51.119 84.4661 52.5204 84.5891 53.9055 84.5936C54.1787 84.5951 54.1787 84.1711 53.9055 84.1711C52.556 84.1666 51.1977 84.0495 49.8972 83.6714C49.6344 83.5958 49.5231 84.0035 49.7843 84.0791Z" fill="white"/>
<path d="M42.0364 82.177C42.8425 82.3104 43.6382 82.4172 44.4355 82.177C44.6968 82.0984 44.5854 81.6907 44.3226 81.7693C43.5967 81.9872 42.8826 81.8908 42.1492 81.7693C41.882 81.7248 41.7677 82.1325 42.0364 82.177Z" fill="white"/>
<path d="M48.8951 78.4983C50.1243 78.7637 51.3773 78.8808 52.6348 78.8867C52.9079 78.8882 52.9079 78.4657 52.6348 78.4642C51.4144 78.4582 50.2015 78.3485 49.0079 78.0906C48.7422 78.0327 48.6279 78.4405 48.8951 78.4983Z" fill="white"/>
<path d="M64.066 83.833C65.9292 83.9442 67.7403 83.3408 69.4565 82.684C69.7089 82.5876 69.599 82.1784 69.3437 82.2762C67.6602 82.9197 65.892 83.5187 64.066 83.4105C63.7928 83.3941 63.7943 83.8167 64.066 83.833Z" fill="white"/>
<path d="M73.8686 78.8246C74.8024 77.6623 76.1875 77.0025 77.298 76.0343C77.5043 75.8549 77.203 75.5569 76.9981 75.7348C75.8862 76.7045 74.504 77.3613 73.5687 78.5251C73.401 78.7357 73.6979 79.0366 73.8686 78.8246Z" fill="white"/>
<path d="M68.1307 76.3483C68.4039 76.3483 68.4039 75.9258 68.1307 75.9258C67.8575 75.9258 67.8575 76.3483 68.1307 76.3483Z" fill="white"/>
<path d="M68.1872 76.3411C69.1938 76.0712 70.0489 75.496 70.9055 74.9252C71.1311 74.7739 70.9188 74.4077 70.6917 74.5604C69.8663 75.112 69.0453 75.6739 68.0744 75.9348C67.8116 76.0045 67.923 76.4122 68.1872 76.3411Z" fill="white"/>
<path d="M70.3963 69.4706C71.2336 69.0451 72.0011 68.5114 72.7256 67.9154C72.9364 67.7419 72.6351 67.4439 72.4257 67.6159C71.7295 68.1897 70.9872 68.6952 70.1826 69.1044C69.9406 69.229 70.1544 69.5937 70.3963 69.4706Z" fill="white"/>
<path d="M78.0938 70.0281C79.1315 68.5054 80.7156 67.4023 81.5232 65.7151C81.6404 65.4705 81.2752 65.2555 81.158 65.5016C80.3533 67.1844 78.7648 68.2934 77.7286 69.8146C77.5742 70.0414 77.9409 70.2534 78.0938 70.0281Z" fill="white"/>
<path d="M75.901 62.4606C77.0397 61.5607 77.9364 60.4265 78.8227 59.2893C78.9889 59.0773 78.6905 58.7748 78.5228 58.9898C77.6365 60.127 76.7398 61.2612 75.6011 62.1611C75.3874 62.3301 75.6902 62.6281 75.901 62.4606Z" fill="white"/>
<path d="M76.664 56.6266C77.3395 55.8245 78.0818 55.0832 78.8226 54.3433C79.0156 54.1506 78.7172 53.8511 78.5227 54.0439C77.7819 54.7837 77.0396 55.525 76.3641 56.3271C76.189 56.5347 76.4874 56.8341 76.664 56.6266Z" fill="white"/>
<path d="M84.0307 58.4014C84.7863 57.7506 85.297 56.8981 85.8418 56.0752C85.9932 55.8469 85.6266 55.6349 85.4766 55.8617C84.9511 56.6549 84.4612 57.4733 83.7323 58.102C83.5244 58.2814 83.8243 58.5794 84.0307 58.4014Z" fill="white"/>
<path d="M74.9687 51.7118C75.5863 51.3989 76.1653 51.0209 76.6626 50.5375C76.8586 50.3463 76.5587 50.0483 76.3627 50.238C75.8906 50.6976 75.3399 51.0505 74.7549 51.347C74.5115 51.4701 74.7267 51.8348 74.9687 51.7118Z" fill="white"/>
<path d="M89.237 56.6268C89.7418 56.1093 90.1292 55.4941 90.634 54.9781C90.824 54.7824 90.5256 54.4844 90.3341 54.6786C89.8293 55.196 89.4419 55.8113 88.9371 56.3273C88.7471 56.523 89.047 56.821 89.237 56.6268Z" fill="white"/>
<path d="M9.55675 59.0683C10.3629 58.5064 10.8736 57.5887 11.9187 57.4404C12.1874 57.4018 12.0731 56.9956 11.8059 57.0327C10.6999 57.1883 10.1892 58.112 9.34149 58.7036C9.12177 58.8593 9.33258 59.2255 9.55675 59.0683Z" fill="#964022"/>
<path d="M11.6322 61.7C12.1711 61.1618 12.716 60.6147 13.3677 60.2114C13.5993 60.0676 13.387 59.7014 13.1539 59.8467C12.471 60.2692 11.898 60.8371 11.3323 61.402C11.1393 61.5932 11.4392 61.8927 11.6322 61.7Z" fill="#964022"/>
<path d="M5.38663 63.0302C5.6598 63.0302 5.6598 62.6077 5.38663 62.6077C5.11347 62.6077 5.11347 63.0302 5.38663 63.0302Z" fill="#964022"/>
<path d="M5.66279 62.842C6.06511 62.4476 6.51642 62.117 7.01672 61.8605C7.26019 61.7359 7.04493 61.3712 6.80294 61.4958C6.27146 61.7686 5.78898 62.1259 5.3629 62.544C5.16842 62.7338 5.46831 63.0332 5.66279 62.842Z" fill="#964022"/>
<path d="M7.5452 66.7085C7.81837 66.7085 7.81837 66.2859 7.5452 66.2859C7.27204 66.2859 7.27204 66.7085 7.5452 66.7085Z" fill="#964022"/>
<path d="M7.77975 66.5527C8.14645 66.3081 8.52204 66.0664 8.83826 65.758C9.03422 65.5683 8.73434 65.2688 8.53837 65.4586C8.2474 65.7417 7.90149 65.9626 7.56449 66.1865C7.33883 66.3377 7.55113 66.7054 7.77975 66.5527Z" fill="#964022"/>
<path d="M13.8963 70.1335C14.1694 70.1335 14.1694 69.7109 13.8963 69.7109C13.6231 69.7109 13.6231 70.1335 13.8963 70.1335Z" fill="#964022"/>
<path d="M13.9527 70.126C15.0245 69.8384 15.945 69.2068 16.9248 68.7086C17.1682 68.5855 16.9545 68.2208 16.711 68.3439C15.7653 68.8242 14.8746 69.441 13.8398 69.7183C13.5756 69.7894 13.6884 70.1972 13.9527 70.126Z" fill="#964022"/>
<path d="M14.383 66.4268C15.3302 66.0087 16.1704 65.4008 16.9662 64.744C17.177 64.5705 16.8756 64.2725 16.6663 64.4445C15.8988 65.0776 15.0823 65.6558 14.1692 66.0606C13.9213 66.1717 14.1366 66.535 14.383 66.4268Z" fill="#964022"/>
<path d="M13.3676 56.4057C14.2717 55.8839 15.1327 55.2849 16.1111 54.9053C16.3634 54.8075 16.2536 54.3983 15.9982 54.4976C14.9843 54.8905 14.0905 55.4999 13.1538 56.041C12.9177 56.1759 13.13 56.5421 13.3676 56.4057Z" fill="#964022"/>
</svg>
