<svg width="1600" height="960" viewBox="0 0 1600 960" fill="none" xmlns="http://www.w3.org/2000/svg">
<path d="M0 0H1600V754.951L0 794V0Z" fill="#2F3C91"/>
<path d="M1608.8 764.827L1589.37 761.604C1569.8 758.063 1530.4 752.135 1493.43 775.608C1456.37 799.412 1421.23 853.459 1382.91 872.94C1345.73 892.681 1306.57 876.975 1265.84 853.464C1226.32 829.397 1186.14 797.474 1147.23 786.392C1107.57 775.841 1069.52 786.111 1032.1 801.472C993.98 816.385 956.368 836.395 918.432 842.59C880.047 848.811 840.755 842.876 801.851 831.794C762.637 821.217 722.687 805.556 684.056 799.34C645.294 792.807 607.242 794.94 567.957 797.143C529.793 799.282 491.63 801.422 453.313 820.902C416.249 840.637 379.883 876.852 342.22 887.914C303.772 899.02 264.271 883.333 225.639 877.118C186.316 870.616 147.704 872.781 110.268 887.899C72.3833 903.042 35.0018 931.177 16.6478 945.225L-1.70616 959.273L-15.0001 751.71L7.30092 776.498C26.607 775.416 65.556 773.232 103.719 771.092C141.995 768.946 180.046 766.813 219.332 764.611C257.495 762.471 295.658 760.332 334.944 758.129C372.995 755.996 411.271 753.85 449.434 751.71C488.383 749.527 526.883 747.368 565.046 745.229C603.883 743.051 642.495 740.886 680.659 738.747C719.271 736.582 758.108 734.405 796.271 732.265C834.771 730.107 873.72 727.923 911.883 725.783C950.159 723.638 988.21 721.504 1027.5 719.302C1065.66 717.162 1103.82 715.023 1143.11 712.82C1181.16 710.687 1219.43 708.541 1257.6 706.401C1296.55 704.218 1335.05 702.059 1373.21 699.92C1412.05 697.742 1450.66 695.578 1488.82 693.438C1527.43 691.273 1566.27 689.096 1585.35 688.026L1604.43 686.956L1608.8 764.827Z" fill="#2F3C91"/>
</svg>
