<svg width="117" height="78" viewBox="0 0 117 78" fill="none" xmlns="http://www.w3.org/2000/svg">
<path d="M41.5588 1.42996L44.3334 8.36598L44.4472 8.65046L44.7524 8.67821L49.8145 9.1386L52.6025 14.7146L53.0764 15.6623L53.5067 14.6941L55.3429 10.5623L62.37 9.15731L63.0119 9.02895L62.7191 8.4434L60.1307 3.26653C60.4035 3.24445 60.7488 3.22155 61.1549 3.20484C62.244 3.16003 63.7667 3.15998 65.4974 3.33894C68.9699 3.69802 73.222 4.77172 76.5094 7.58977L76.8348 7.21016L76.5094 7.5898C77.2672 8.23936 78.31 9.65259 79.4685 11.4736C80.6153 13.276 81.8414 15.422 82.9683 17.4864C84.0947 19.5497 85.119 21.5259 85.8619 22.9867C86.2332 23.717 86.5341 24.3181 86.7421 24.7365C86.846 24.9456 86.9267 25.1091 86.9814 25.2202L87.0435 25.3466L87.0455 25.3505L87.0493 25.3639C87.0596 25.4002 87.0749 25.455 87.0946 25.5276C87.1339 25.6728 87.1906 25.889 87.259 26.1697C87.396 26.7312 87.5799 27.5505 87.7662 28.5754C88.1388 30.6261 88.5198 33.4956 88.5536 36.7684C88.6213 43.3246 87.2958 51.4352 81.7947 57.853C71.6969 69.6339 55.6901 76.8577 40.8335 77.4592C25.9876 78.0602 12.4007 72.0582 6.91766 57.5164C1.39476 42.8689 4.27566 30.8813 8.53347 22.5458C10.6646 18.3737 13.1416 15.1159 15.0854 12.902C16.057 11.7955 16.8943 10.9508 17.487 10.3842C17.7834 10.101 18.0185 9.88731 18.1785 9.7453C18.2585 9.67429 18.3197 9.6212 18.3604 9.58628L18.4059 9.54756L18.4064 9.54713C23.4282 5.96415 29.2996 3.92386 33.9349 2.78016C36.2519 2.20847 38.2527 1.86258 39.6728 1.65975C40.3828 1.55836 40.9472 1.49278 41.3329 1.45264C41.4168 1.44391 41.4922 1.43638 41.5588 1.42996Z" fill="white" stroke="black"/>
<path d="M52.0165 60.1314L52.0166 60.1315C53.9043 60.3669 56.4109 61.0808 58.5718 61.9212C59.65 62.3406 60.6288 62.7863 61.3916 63.2117C61.7731 63.4245 62.0933 63.6282 62.3422 63.8165C62.5968 64.0092 62.751 64.1667 62.8273 64.2811C62.9967 64.5351 63.264 64.6326 63.4863 64.6669C63.7099 64.7013 63.9608 64.6849 64.2137 64.6453C64.723 64.5656 65.3701 64.3701 66.0968 64.11C67.3289 63.669 68.8762 63.01 70.5276 62.3066C70.8314 62.1773 71.1387 62.0464 71.4482 61.9151C73.4511 61.0654 75.5577 60.1931 77.4626 59.5632C78.8739 59.0965 80.131 58.7785 81.1341 58.685C70.5626 71.68 53.9911 77.5865 38.6729 77.0663C23.0252 76.535 8.83339 69.3126 3.64918 56.2821L3.18459 56.467L3.64917 56.2821C-2.1274 41.7631 1.55061 30.103 6.67709 22.0513C9.24387 18.0199 12.1742 14.8945 14.4639 12.7767C15.6082 11.7184 16.591 10.9131 17.286 10.3736C17.6334 10.1039 17.9088 9.90067 18.0963 9.76559C18.1901 9.69805 18.2618 9.64754 18.3097 9.61427C18.3124 9.61239 18.315 9.61055 18.3176 9.60878L25.0833 7.61896L22.0629 11.7711L21.782 12.1574L22.1549 12.4557L22.4672 12.0653C22.1549 12.4557 22.155 12.4558 22.1551 12.4559L22.1556 12.4563L22.1574 12.4577L22.1643 12.4632L22.1911 12.4845L22.2949 12.5667C22.3859 12.6385 22.5196 12.7436 22.6912 12.8771C23.0346 13.1441 23.5299 13.5251 24.1393 13.9821C25.3577 14.8958 27.0342 16.1151 28.8646 17.3352C30.6931 18.5541 32.6845 19.7802 34.531 20.7034C36.1854 21.5306 37.7877 22.1484 39.0718 22.2563C39.1035 22.3766 39.1415 22.5262 39.1832 22.7008C39.302 23.1982 39.4507 23.8965 39.5695 24.6981C39.8094 26.3169 39.9175 28.2936 39.4619 29.8877L39.4619 29.8879C38.8901 31.8907 40.0703 33.2957 41.228 34.1318C41.8132 34.5543 42.4247 34.8592 42.8853 35.0577C42.9737 35.0957 43.0569 35.1301 43.1338 35.1607C43.042 35.3604 42.9307 35.6134 42.8094 35.912C42.4907 36.6969 42.1016 37.8015 41.821 39.0797C41.263 41.621 41.1161 44.935 42.919 47.7679C43.7543 49.0804 44.4732 50.4573 45.1463 51.8036C45.3149 52.1406 45.481 52.4768 45.6455 52.8097C46.134 53.7981 46.6084 54.758 47.0899 55.6294C48.3577 57.9236 49.7996 59.8542 52.0165 60.1314Z" fill="white" stroke="black"/>
<path d="M14.8646 48.3055C13.9253 48.6917 13.0538 48.7049 12.2607 48.3085C9.44014 46.8979 7.94136 44.3278 7.41618 41.2282C6.88904 38.117 7.35309 34.506 8.44327 31.13C9.53335 27.7542 11.2337 24.6623 13.1297 22.5845C15.0506 20.4795 17.0333 19.5512 18.7391 20.0994C21.8397 21.0959 23.449 23.5023 23.998 26.5965C24.5509 29.7132 24.0127 33.4878 22.8157 37.0531C21.6194 40.6162 19.7855 43.9098 17.8081 46.0661C16.8186 47.1451 15.816 47.9143 14.8646 48.3055Z" fill="white" stroke="black"/>
<path d="M85.7652 77.2244C85.7604 77.2631 85.7415 77.2457 85.7375 77.2211L85.7652 77.2244ZM85.7652 77.2244C85.7658 77.2195 85.7664 77.2146 85.767 77.2097C85.767 77.2096 85.7671 77.2096 85.7671 77.2095C85.7909 77.0326 85.8557 76.8919 85.9464 76.7861C85.9298 76.7791 85.912 76.7726 85.893 76.7671C85.8073 76.8957 85.7533 77.0479 85.737 77.2064C85.7365 77.2113 85.7367 77.2163 85.7374 77.221L85.7652 77.2244ZM87.3381 77.0599C87.3046 76.909 87.2305 76.7713 87.1287 76.6612C87.0882 76.678 87.0537 76.6986 87.0248 76.72C87.1368 76.8063 87.231 76.9233 87.2927 77.0696L87.3381 77.0599ZM87.3381 77.0599L87.2928 77.0699C87.2984 77.0833 87.3037 77.0968 87.3088 77.1106C87.3175 77.1343 87.3265 77.1211 87.3323 77.102L87.3088 77.1106L87.3323 77.1019C87.337 77.0864 87.3396 77.067 87.3381 77.0599Z" fill="#F2874D" stroke="black"/>
<mask id="path-5-inside-1_2_2405" fill="white">
<path d="M87.1116 75.0736C87.6851 74.2916 88.7645 74.5586 89.0214 75.4589C89.0371 75.5119 89.0608 75.4499 89.0574 75.424C88.9436 74.3964 87.622 74.153 87.0958 75.015C87.0879 75.0285 87.0947 75.0961 87.1116 75.0736Z"/>
</mask>
<path d="M87.1116 75.0736C87.6851 74.2916 88.7645 74.5586 89.0214 75.4589C89.0371 75.5119 89.0608 75.4499 89.0574 75.424C88.9436 74.3964 87.622 74.153 87.0958 75.015C87.0879 75.0285 87.0947 75.0961 87.1116 75.0736Z" fill="#F2874D"/>
<path d="M87.1116 75.0736L87.9116 75.6736L87.918 75.665L87.1116 75.0736ZM89.0214 75.4589L88.0597 75.7333L88.063 75.7444L89.0214 75.4589ZM89.0574 75.424L88.0635 75.534L88.0646 75.5437L88.0658 75.5533L89.0574 75.424ZM87.0958 75.015L86.2423 74.4939L86.2371 74.5025L86.232 74.5111L87.0958 75.015ZM87.918 75.665C87.9371 75.6389 87.9522 75.6254 87.9602 75.6192C87.9644 75.616 87.9674 75.6141 87.9692 75.6131C87.971 75.6121 87.9719 75.6117 87.9721 75.6117C87.9721 75.6117 87.9711 75.612 87.97 75.612C87.9691 75.6121 87.9697 75.6119 87.972 75.6124C87.9765 75.6134 87.9893 75.6176 88.0053 75.6328C88.0198 75.6467 88.0434 75.6759 88.0598 75.7333L89.983 75.1845C89.7567 74.3915 89.1432 73.8209 88.3984 73.6584C87.6344 73.4917 86.8232 73.7759 86.3052 74.4821L87.918 75.665ZM88.063 75.7444C88.0791 75.7984 88.1142 75.9028 88.188 76.0169C88.2552 76.1208 88.4303 76.3484 88.7635 76.4421C89.1389 76.5476 89.4514 76.4137 89.6226 76.2912C89.7758 76.1815 89.8609 76.0558 89.8979 75.9957C89.977 75.8674 90.0127 75.7469 90.0299 75.6725C90.0457 75.6038 90.0713 75.4652 90.049 75.2946L88.0658 75.5533C88.0453 75.3957 88.0692 75.2745 88.081 75.2231C88.0942 75.1659 88.1237 75.0625 88.1953 74.9463C88.2286 74.8923 88.3096 74.7714 88.4587 74.6647C88.6256 74.5452 88.9338 74.4124 89.3048 74.5167C89.6336 74.6092 89.8043 74.8332 89.8672 74.9304C89.9367 75.0379 89.9676 75.1327 89.9798 75.1734L88.063 75.7444ZM90.0514 75.3139C89.8223 73.2457 87.2162 72.8985 86.2423 74.4939L87.9493 75.536C87.9606 75.5175 87.9699 75.5085 87.9748 75.5044C87.9799 75.5 87.9846 75.4972 87.9895 75.4952C88.0007 75.4906 88.0178 75.488 88.0364 75.4917C88.0545 75.4953 88.0592 75.5017 88.0565 75.4989C88.055 75.4973 88.0546 75.4962 88.0553 75.4978C88.056 75.4992 88.0608 75.5097 88.0635 75.534L90.0514 75.3139ZM86.232 74.5111C86.1411 74.6669 86.1156 74.8088 86.1082 74.8516C86.0972 74.9152 86.0939 74.9692 86.0929 75.0062C86.091 75.079 86.0961 75.156 86.11 75.2336C86.117 75.2728 86.1295 75.331 86.1531 75.3984C86.1712 75.4504 86.2222 75.5868 86.3405 75.7253C86.4681 75.8746 86.7879 76.1405 87.2614 76.0659C87.6515 76.0044 87.8572 75.7461 87.9116 75.6736L86.3116 74.4736C86.3617 74.4067 86.5635 74.1512 86.9501 74.0903C87.42 74.0162 87.7366 74.2804 87.8613 74.4263C87.9767 74.5614 88.0251 74.6928 88.0411 74.7386C88.0625 74.7998 88.0732 74.8506 88.0788 74.882C88.0899 74.9438 88.0937 75.0027 88.0922 75.0598C88.0914 75.0889 88.0888 75.1356 88.0788 75.193C88.0725 75.2296 88.0485 75.3664 87.9596 75.5188L86.232 74.5111Z" fill="black" mask="url(#path-5-inside-1_2_2405)"/>
<mask id="path-7-inside-2_2_2405" fill="white">
<path d="M79.5782 71.3768C80.3501 71.2371 81.0554 71.8309 80.9528 72.6354C80.9461 72.6906 80.9923 72.7526 81.0058 72.668C81.1388 71.8298 80.4278 71.0974 79.5782 71.2957C79.5523 71.3025 79.5557 71.3802 79.5782 71.3768Z"/>
</mask>
<path d="M79.5782 71.3768C80.3501 71.2371 81.0554 71.8309 80.9528 72.6354C80.9461 72.6906 80.9923 72.7526 81.0058 72.668C81.1388 71.8298 80.4278 71.0974 79.5782 71.2957C79.5523 71.3025 79.5557 71.3802 79.5782 71.3768Z" fill="#F2874D"/>
<path d="M79.5782 71.3768L79.7266 72.3658L79.7415 72.3635L79.7564 72.3608L79.5782 71.3768ZM80.9528 72.6354L79.9609 72.5089L79.9603 72.5138L80.9528 72.6354ZM81.0058 72.668L81.9932 72.826L81.9935 72.8247L81.0058 72.668ZM79.5782 71.2957L79.3509 70.3219L79.3383 70.3248L79.3258 70.3281L79.5782 71.2957ZM79.7564 72.3608C79.8405 72.3456 79.8986 72.3723 79.9284 72.3988C79.9431 72.4119 79.9513 72.4251 79.9559 72.4371C79.9599 72.4474 79.966 72.469 79.9609 72.5089L81.9448 72.7618C82.1417 71.2169 80.7659 70.1456 79.4001 70.3928L79.7564 72.3608ZM79.9603 72.5138C79.94 72.679 79.9597 72.8307 79.9967 72.9569C80.0277 73.0625 80.1014 73.2558 80.2812 73.4274C80.3743 73.5163 80.5591 73.6582 80.8365 73.6989C81.1535 73.7453 81.4399 73.6372 81.6387 73.4681C81.81 73.3224 81.8905 73.1568 81.9263 73.0684C81.9657 72.971 81.9839 72.8844 81.9932 72.826L80.0184 72.5101C80.0243 72.4728 80.0381 72.4028 80.0724 72.318C80.1031 72.2421 80.1778 72.0851 80.343 71.9446C80.5357 71.7807 80.8156 71.6745 81.1262 71.7199C81.3971 71.7596 81.5753 71.8978 81.6622 71.9808C81.8296 72.1406 81.8922 72.3133 81.916 72.3944C81.9458 72.496 81.9623 72.6193 81.9454 72.7569L79.9603 72.5138ZM81.9935 72.8247C82.227 71.3519 80.9566 69.9471 79.3509 70.3219L79.8056 72.2695C79.8515 72.2588 79.8801 72.2632 79.8975 72.2683C79.9171 72.2741 79.9384 72.2856 79.959 72.3059C80.0005 72.3467 80.0331 72.4173 80.0181 72.5114L81.9935 72.8247ZM79.3258 70.3281C78.8366 70.4557 78.6651 70.8578 78.6243 70.9701C78.5681 71.1248 78.5583 71.2647 78.5603 71.3613C78.5622 71.452 78.5766 71.6049 78.6516 71.7733C78.6937 71.8679 79.0042 72.4741 79.7266 72.3658L79.4299 70.3879C80.1411 70.2812 80.4426 70.8789 80.4786 70.9597C80.5475 71.1143 80.5583 71.248 80.5599 71.3188C80.5615 71.3956 80.5543 71.515 80.504 71.6533C80.4691 71.7493 80.3069 72.1391 79.8307 72.2633L79.3258 70.3281Z" fill="black" mask="url(#path-7-inside-2_2_2405)"/>
<mask id="path-9-inside-3_2_2405" fill="white">
<path d="M81.7248 70.7515C82.5 70.6602 83.0836 71.2878 82.9653 72.054C82.9608 72.0844 82.9878 72.1531 83.0059 72.0934C83.2583 71.2878 82.5405 70.5171 81.7248 70.6737C81.7 70.6782 81.7023 70.7537 81.7248 70.7515Z"/>
</mask>
<path d="M81.7248 70.7515C82.5 70.6602 83.0836 71.2878 82.9653 72.054C82.9608 72.0844 82.9878 72.1531 83.0059 72.0934C83.2583 71.2878 82.5405 70.5171 81.7248 70.6737C81.7 70.6782 81.7023 70.7537 81.7248 70.7515Z" fill="#F2874D"/>
<path d="M81.7248 70.7515L81.8243 71.7465L81.833 71.7456L81.8417 71.7446L81.7248 70.7515ZM82.9653 72.054L81.977 71.9014L81.9761 71.9074L82.9653 72.054ZM83.0059 72.0934L82.0515 71.7944L82.0485 71.8044L83.0059 72.0934ZM81.7248 70.6737L81.9037 71.6576L81.9133 71.6558L81.7248 70.6737ZM81.8417 71.7446C81.8869 71.7393 81.913 71.7458 81.9251 71.7502C81.9381 71.7548 81.9467 71.7611 81.9533 71.7681C81.9601 71.7752 81.968 71.7867 81.9736 71.8052C81.979 71.823 81.9843 71.8541 81.977 71.9014L83.9536 72.2066C84.1693 70.8093 83.0618 69.5872 81.6079 69.7583L81.8417 71.7446ZM81.9761 71.9074C81.9504 72.081 81.9744 72.2237 81.9912 72.299C82.0089 72.3783 82.046 72.5044 82.1291 72.6375C82.1684 72.7002 82.257 72.8286 82.416 72.9383C82.5956 73.0622 82.9085 73.184 83.275 73.0756C83.5984 72.9799 83.7697 72.7589 83.8371 72.6553C83.9108 72.5419 83.9465 72.4378 83.9632 72.3824L82.0485 71.8044C82.0608 71.7639 82.0916 71.6707 82.1604 71.5649C82.223 71.4688 82.3892 71.252 82.7076 71.1578C83.0691 71.0508 83.377 71.1715 83.5518 71.2921C83.7061 71.3985 83.7901 71.5215 83.8251 71.5775C83.8998 71.697 83.9299 71.804 83.9432 71.8637C83.9557 71.9194 83.978 72.0421 83.9545 72.2005L81.9761 71.9074ZM83.9601 72.3924C84.4474 70.8371 83.0659 69.398 81.5362 69.6917L81.9133 71.6558C81.9379 71.6511 81.956 71.6536 81.9719 71.6592C81.9904 71.6658 82.0104 71.6784 82.0272 71.6968C82.0439 71.7151 82.0521 71.7331 82.0552 71.7461C82.0576 71.7558 82.0593 71.7699 82.0516 71.7944L83.9601 72.3924ZM81.5459 69.6899C81.0122 69.7869 80.8192 70.2203 80.7766 70.3323C80.7164 70.4905 80.7057 70.6336 80.7071 70.7298C80.7085 70.8218 80.7222 70.9742 80.7959 71.1422C80.8406 71.2444 81.1314 71.8158 81.8243 71.7465L81.6253 69.7564C82.3069 69.6883 82.589 70.2511 82.6277 70.3396C82.6954 70.494 82.7059 70.6276 82.7069 70.7004C82.7081 70.7775 82.7001 70.901 82.6457 71.0439C82.6089 71.1406 82.425 71.5628 81.9037 71.6576L81.5459 69.6899Z" fill="black" mask="url(#path-9-inside-3_2_2405)"/>
<mask id="path-11-inside-4_2_2405" fill="white">
<path d="M84.0865 70.4945C84.9056 70.3807 85.5388 71.0319 85.621 71.8049C85.6256 71.8511 85.6582 71.8488 85.6639 71.8049C85.781 70.9553 84.8785 70.2545 84.0865 70.4066C84.0583 70.4111 84.0605 70.499 84.0865 70.4945Z"/>
</mask>
<path d="M84.0865 70.4945C84.9056 70.3807 85.5388 71.0319 85.621 71.8049C85.6256 71.8511 85.6582 71.8488 85.6639 71.8049C85.781 70.9553 84.8785 70.2545 84.0865 70.4066C84.0583 70.4111 84.0605 70.499 84.0865 70.4945Z" fill="#F2874D"/>
<path d="M84.0865 70.4945L83.9488 69.504L83.9319 69.5064L83.9151 69.5093L84.0865 70.4945ZM85.621 71.8049L86.6164 71.7078L86.6154 71.6991L85.621 71.8049ZM85.6639 71.8049L84.6732 71.6682L84.672 71.6777L85.6639 71.8049ZM84.0865 70.4066L84.2444 71.3941L84.2598 71.3916L84.275 71.3887L84.0865 70.4066ZM84.2241 71.485C84.3185 71.4719 84.3905 71.4965 84.4591 71.5587C84.5392 71.6311 84.6103 71.7569 84.6267 71.9107L86.6154 71.6991C86.4885 70.5066 85.4595 69.2941 83.9488 69.504L84.2241 71.485ZM84.6258 71.902C84.6369 72.0156 84.673 72.2022 84.8004 72.3906C84.9318 72.5851 85.2239 72.8516 85.6719 72.8382C86.099 72.8255 86.3624 72.5655 86.4776 72.3992C86.5976 72.2259 86.6404 72.0519 86.6557 71.932L84.672 71.6777C84.6845 71.5798 84.7211 71.4226 84.8333 71.2606C84.9406 71.1056 85.1945 70.8516 85.6122 70.8391C86.0507 70.826 86.3334 71.0872 86.4573 71.2705C86.5771 71.4477 86.6075 71.6173 86.6163 71.7078L84.6258 71.902ZM86.6545 71.9415C86.7696 71.1067 86.3738 70.3999 85.8622 69.9668C85.3586 69.5406 84.6357 69.2829 83.8979 69.4246L84.275 71.3887C84.3293 71.3783 84.4536 71.3949 84.5701 71.4934C84.6784 71.5851 84.6753 71.6535 84.6732 71.6682L86.6545 71.9415ZM83.9285 69.4192C83.3736 69.5079 83.1763 69.962 83.1361 70.0677C83.0759 70.2261 83.065 70.3698 83.0663 70.4668C83.0674 70.5578 83.0805 70.7158 83.1579 70.8898C83.1963 70.9761 83.2813 71.1362 83.4549 71.2744C83.6574 71.4357 83.9445 71.5342 84.2578 71.4797L83.9151 69.5093C84.2219 69.4559 84.5033 69.5527 84.7008 69.71C84.8694 69.8442 84.9502 69.9982 84.9852 70.0768C85.0558 70.2355 85.0652 70.3721 85.0661 70.4411C85.067 70.5161 85.0592 70.6372 85.0057 70.7781C84.9722 70.8662 84.7852 71.3075 84.2444 71.3941L83.9285 69.4192Z" fill="black" mask="url(#path-11-inside-4_2_2405)"/>
<mask id="path-13-inside-5_2_2405" fill="white">
<path d="M87.1532 69.9628C87.7752 70.1104 88.2427 70.6276 88.2044 71.289C88.2022 71.3352 88.2405 71.3622 88.2495 71.3025C88.3498 70.64 87.8529 69.9065 87.1521 69.8828C87.1284 69.8828 87.1295 69.9572 87.1532 69.9628Z"/>
</mask>
<path d="M87.1532 69.9628C87.7752 70.1104 88.2427 70.6276 88.2044 71.289C88.2022 71.3352 88.2405 71.3622 88.2495 71.3025C88.3498 70.64 87.8529 69.9065 87.1521 69.8828C87.1284 69.8828 87.1295 69.9572 87.1532 69.9628Z" fill="#F2874D"/>
<path d="M87.1532 69.9628L86.9216 70.9356L86.9223 70.9358L87.1532 69.9628ZM88.2044 71.289L87.2061 71.2311L87.2056 71.2402L88.2044 71.289ZM88.2495 71.3025L87.2608 71.1528L87.2607 71.1532L88.2495 71.3025ZM87.1521 69.8828L87.1858 68.8834L87.169 68.8828H87.1521V69.8828ZM86.9223 70.9358C87.0355 70.9627 87.1127 71.0182 87.1547 71.0691C87.1912 71.1135 87.2101 71.1627 87.2061 71.2311L89.2028 71.3468C89.2739 70.1182 88.3923 69.2291 87.3841 68.9898L86.9223 70.9358ZM87.2056 71.2402C87.1983 71.3899 87.2218 71.551 87.2878 71.7075C87.3426 71.8374 87.4802 72.0863 87.7853 72.2347C87.9541 72.3168 88.1774 72.3662 88.4234 72.3179C88.6677 72.2699 88.8493 72.1424 88.9676 72.0163C89.1776 71.7925 89.2245 71.543 89.2383 71.4517L87.2607 71.1532C87.27 71.0918 87.3088 70.8613 87.5091 70.6478C87.6225 70.5269 87.7989 70.4023 88.038 70.3554C88.2787 70.3081 88.4966 70.3566 88.6602 70.4362C88.9548 70.5795 89.0827 70.8167 89.1307 70.9304C89.1899 71.0707 89.2094 71.2111 89.2032 71.3377L87.2056 71.2402ZM89.2382 71.4521C89.332 70.8329 89.1467 70.2197 88.8049 69.758C88.4585 69.2903 87.8947 68.9073 87.1858 68.8834L87.1183 70.8822C87.1196 70.8823 87.1237 70.882 87.1353 70.8886C87.1492 70.8966 87.1727 70.9146 87.1975 70.9482C87.2224 70.9818 87.2419 71.0221 87.2529 71.063C87.2637 71.1036 87.2635 71.1345 87.2608 71.1528L89.2382 71.4521ZM87.1521 68.8828C86.5149 68.8828 86.2612 69.3974 86.2117 69.52C86.1428 69.6906 86.1337 69.8436 86.135 69.9353C86.1364 70.0325 86.1514 70.1677 86.2095 70.315C86.2465 70.4087 86.4232 70.817 86.9216 70.9356L87.3848 68.99C87.8713 69.1058 88.0391 69.5027 88.0699 69.5809C88.1219 69.7127 88.1337 69.8282 88.1348 69.9061C88.1358 69.9785 88.1294 70.1126 88.0662 70.2691C88.0224 70.3775 87.7774 70.8828 87.1521 70.8828V68.8828Z" fill="black" mask="url(#path-13-inside-5_2_2405)"/>
<mask id="path-15-inside-6_2_2405" fill="white">
<path d="M113.471 77.2267C113.983 76.7389 114.622 76.8842 115.147 77.2448C115.17 77.2606 115.167 77.1839 115.16 77.1738C114.766 76.6183 113.898 76.7085 113.456 77.1456C113.438 77.1614 113.454 77.2425 113.471 77.2267Z"/>
</mask>
<path d="M113.471 77.2267C113.983 76.7389 114.622 76.8842 115.147 77.2448C115.17 77.2606 115.167 77.1839 115.16 77.1738C114.766 76.6183 113.898 76.7085 113.456 77.1456C113.438 77.1614 113.454 77.2425 113.471 77.2267Z" fill="#F2874D"/>
<path d="M113.471 77.2267L114.153 77.9578L114.161 77.9504L113.471 77.2267ZM115.147 77.2448L114.58 78.0692L114.592 78.0768L115.147 77.2448ZM115.16 77.1738L115.992 76.6191L115.984 76.6069L115.975 76.5949L115.16 77.1738ZM113.456 77.1456L114.115 77.8982L114.138 77.878L114.16 77.8564L113.456 77.1456ZM114.161 77.9504C114.178 77.9341 114.191 77.9255 114.197 77.9215C114.204 77.9175 114.207 77.9164 114.207 77.9162C114.208 77.916 114.209 77.9156 114.212 77.9152C114.215 77.9149 114.222 77.9143 114.233 77.9151C114.289 77.919 114.41 77.952 114.58 78.0691L115.713 76.4204C115.358 76.177 114.897 75.957 114.374 75.9201C113.814 75.8805 113.248 76.0581 112.781 76.5031L114.161 77.9504ZM114.592 78.0768C114.737 78.1735 115.043 78.3165 115.424 78.2096C115.784 78.1088 115.963 77.8531 116.03 77.735C116.151 77.5211 116.16 77.3174 116.162 77.2875C116.167 77.2138 116.165 77.1448 116.158 77.0846C116.155 77.0543 116.149 77.0098 116.137 76.9577C116.134 76.9451 116.103 76.7848 115.992 76.6191L114.328 77.7285C114.219 77.5653 114.189 77.4096 114.188 77.4031C114.177 77.3571 114.172 77.3201 114.17 77.2981C114.165 77.2546 114.163 77.2057 114.167 77.1505C114.168 77.1391 114.174 76.9522 114.29 76.7485C114.354 76.6356 114.529 76.3834 114.884 76.2838C115.262 76.178 115.562 76.32 115.701 76.4127L114.592 78.0768ZM115.975 76.5949C115.542 75.9847 114.873 75.774 114.302 75.7878C113.745 75.8012 113.169 76.0234 112.753 76.4349L114.16 77.8564C114.168 77.8485 114.191 77.8298 114.232 77.8129C114.273 77.7962 114.315 77.788 114.35 77.7872C114.385 77.7863 114.396 77.793 114.389 77.7898C114.377 77.7846 114.358 77.771 114.345 77.7527L115.975 76.5949ZM112.798 76.393C112.615 76.5529 112.537 76.7357 112.505 76.8315C112.469 76.9361 112.457 77.0267 112.452 77.0847C112.443 77.2007 112.453 77.3031 112.468 77.3823C112.479 77.4404 112.511 77.5951 112.615 77.7587C112.656 77.8244 112.808 78.0525 113.12 78.1672C113.551 78.3254 113.939 78.1578 114.153 77.9578L112.789 76.4957C112.878 76.4122 113.02 76.3115 113.218 76.2604C113.426 76.2066 113.632 76.2247 113.81 76.2897C114.118 76.4029 114.265 76.6271 114.304 76.6872C114.4 76.8395 114.426 76.976 114.434 77.0137C114.445 77.0727 114.453 77.1528 114.445 77.2496C114.441 77.2981 114.431 77.3799 114.398 77.4771C114.368 77.5655 114.293 77.7423 114.115 77.8982L112.798 76.393Z" fill="black" mask="url(#path-15-inside-6_2_2405)"/>
<mask id="path-17-inside-7_2_2405" fill="white">
<path d="M114.404 75.3688C114.938 74.8268 115.764 74.971 116.247 75.4893C116.279 75.5231 116.281 75.4217 116.27 75.4026C115.88 74.7265 114.871 74.7423 114.384 75.2921C114.369 75.3102 114.378 75.3958 114.404 75.3688Z"/>
</mask>
<path d="M114.404 75.3688C114.938 74.8268 115.764 74.971 116.247 75.4893C116.279 75.5231 116.281 75.4217 116.27 75.4026C115.88 74.7265 114.871 74.7423 114.384 75.2921C114.369 75.3102 114.378 75.3958 114.404 75.3688Z" fill="#F2874D"/>
<path d="M114.404 75.3688L113.692 74.6668L113.682 74.6769L114.404 75.3688ZM116.247 75.4893L115.516 76.1714L115.516 76.1716L116.247 75.4893ZM116.27 75.4026L115.404 75.9021L115.408 75.9096L116.27 75.4026ZM114.384 75.2921L113.635 74.6293L113.621 74.6451L113.608 74.6615L114.384 75.2921ZM115.116 76.0707C115.141 76.0454 115.16 76.0368 115.172 76.0325C115.187 76.0276 115.211 76.023 115.246 76.0266C115.324 76.0343 115.431 76.0798 115.516 76.1714L116.979 74.8073C116.224 73.9977 114.735 73.6078 113.692 74.6669L115.116 76.0707ZM115.516 76.1716C115.583 76.2429 115.783 76.4398 116.12 76.4866C116.539 76.5446 116.853 76.3384 117.015 76.1555C117.15 76.0026 117.204 75.8476 117.224 75.7854C117.249 75.7076 117.26 75.6406 117.266 75.5965C117.278 75.5086 117.278 75.4257 117.273 75.3538C117.27 75.3167 117.264 75.2658 117.252 75.2074C117.244 75.1699 117.216 75.0392 117.132 74.8955L115.408 75.9096C115.326 75.7707 115.301 75.6474 115.295 75.619C115.285 75.5696 115.28 75.5296 115.278 75.5041C115.275 75.4556 115.275 75.3995 115.283 75.3351C115.288 75.3028 115.297 75.2467 115.319 75.1781C115.335 75.1252 115.386 74.9778 115.517 74.8299C115.674 74.6521 115.983 74.4484 116.395 74.5056C116.726 74.5515 116.92 74.7442 116.978 74.807L115.516 76.1716ZM117.136 74.903C116.736 74.2094 116.033 73.909 115.396 73.8882C114.772 73.8678 114.098 74.1063 113.635 74.6293L115.133 75.955C115.142 75.9442 115.164 75.9256 115.203 75.9098C115.243 75.8937 115.288 75.8857 115.331 75.8871C115.373 75.8885 115.396 75.8984 115.403 75.9023C115.406 75.904 115.404 75.9019 115.404 75.9021L117.136 74.903ZM113.608 74.6615C113.482 74.8168 113.433 74.9704 113.415 75.0364C113.393 75.117 113.384 75.1869 113.38 75.2359C113.373 75.332 113.378 75.43 113.395 75.525C113.403 75.5737 113.419 75.6416 113.449 75.7185C113.474 75.784 113.533 75.9221 113.661 76.0577C113.804 76.2081 114.083 76.4015 114.473 76.3709C114.822 76.3436 115.039 76.1514 115.126 76.0607L113.682 74.6769C113.763 74.5928 113.974 74.4039 114.317 74.377C114.702 74.3469 114.977 74.5378 115.115 74.6838C115.239 74.8148 115.294 74.9464 115.316 75.0038C115.343 75.0727 115.356 75.1311 115.363 75.1697C115.376 75.2444 115.38 75.3193 115.374 75.3951C115.371 75.434 115.364 75.4945 115.344 75.5671C115.328 75.625 115.282 75.772 115.16 75.9227L113.608 74.6615Z" fill="black" mask="url(#path-17-inside-7_2_2405)"/>
</svg>
