<svg width="40" height="40" viewBox="0 0 40 40" fill="none" xmlns="http://www.w3.org/2000/svg">
<circle cx="20" cy="20" r="19.5" fill="white" stroke="black"/>
<path d="M23.0408 27.059V29.3869C23.0408 29.8474 22.6675 30.2207 22.207 30.2207H19.6055V29.2986H21.3231V24.6929H23.0408V27.059Z" fill="#FBC773"/>
<path d="M21.7541 27.059V29.3869C21.7541 29.8474 21.3808 30.2207 20.9203 30.2207H18.5047C18.4021 30.2207 18.3188 30.1375 18.3188 30.0348V29.6388C18.3188 29.2268 18.6528 28.8928 19.0648 28.8928H20.1619C20.294 28.8928 20.401 28.7857 20.401 28.6537V27.059V24.6929H21.7541V27.059Z" fill="#FBCE85"/>
<path d="M15.8877 12.2756C16.7149 12.246 17.3693 11.5383 17.3108 10.6914C17.2609 9.96627 16.6768 9.37668 15.952 9.3205C15.5012 9.28556 15.089 9.45271 14.7961 9.7408C14.6166 9.9173 14.3781 10.0209 14.1264 10.0209H14.0766C13.8249 10.0209 13.5864 9.9173 13.4069 9.7408C13.114 9.45271 12.7018 9.28556 12.2511 9.3205C11.5263 9.37664 10.9422 9.96619 10.8922 10.6914C10.8325 11.5566 11.5166 12.277 12.3691 12.277C12.4146 12.277 12.4595 12.2742 12.504 12.2701L15.8877 12.2756Z" fill="#FD6773"/>
<path d="M11.6386 10.9903C11.6886 10.2651 12.2728 9.6755 12.9975 9.61932C13.0907 9.61212 13.182 9.61397 13.2711 9.62329C12.9927 9.40882 12.6361 9.2909 12.2511 9.32074C11.5263 9.37691 10.9422 9.96646 10.8922 10.6917C10.8361 11.5036 11.4352 12.188 12.2137 12.2692C11.8363 11.9788 11.6027 11.5109 11.6386 10.9903Z" fill="#FC4D5A"/>
<path d="M12.6089 18.4065L12.3355 18.6799C11.982 19.0333 11.4141 19.0496 11.0409 18.717C10.6441 18.3634 10.6177 17.7519 10.9825 17.3653L11.3698 16.9549V15.421V14.2188H13.6316V17.4106L12.6089 18.4065Z" fill="#FD6773"/>
<path d="M11.7895 17.6702L12.1769 17.2598V15.7259V14.5236H13.6316V14.2188H11.3698V15.421V16.9549L10.9825 17.3653C10.6177 17.7519 10.6441 18.3633 11.0409 18.717C11.2489 18.9024 11.5173 18.9791 11.7755 18.9497C11.4495 18.5896 11.4484 18.0317 11.7895 17.6702Z" fill="#FC4D5A"/>
<path d="M12.0911 15.4212L10.7537 15.1017C10.2871 14.9902 10.159 14.387 10.5401 14.0956L11.9512 13.0166L13.2267 11.9363L13.3251 15.6641L12.0911 15.4212Z" fill="#FBC773"/>
<path d="M13.0314 16.4769L13.0719 16.3113C12.229 15.8852 11.6613 14.9935 11.7085 13.974C11.7671 12.7009 12.8005 11.6675 14.0737 11.6089C15.4998 11.5432 16.6765 12.6798 16.6765 14.0916V15.2109C16.6765 15.3462 16.7262 15.4773 16.8164 15.5784L18.5619 17.5383C18.6716 17.6615 18.8287 17.732 18.9936 17.732H27.2368L29.2863 17.3451C29.5488 17.2954 29.7613 17.5579 29.6576 17.8045L29.1548 18.9992V18.9997C29.1548 23.4509 25.5464 27.0592 21.0952 27.0592H20.6687C16.2175 27.0592 12.6087 23.4509 12.6087 18.9992C12.6087 18.7228 12.6256 18.4472 12.6593 18.1737C12.693 17.9001 12.7436 17.6287 12.8106 17.3607L13.0314 16.4769Z" fill="#EFEDEF"/>
<path d="M22.4719 26.5403H22.0454C17.5942 26.5403 13.9854 22.9319 13.9854 18.4803C13.9854 18.2038 14.0023 17.9282 14.036 17.6547C14.0697 17.3812 14.1203 17.1098 14.1873 16.8417L14.4081 15.958L14.4486 15.7923C13.6057 15.3663 13.038 14.4745 13.0852 13.4551C13.1196 12.7083 13.4896 12.0443 14.0464 11.6108C12.7858 11.6828 11.7667 12.71 11.7085 13.9741C11.6613 14.9935 12.229 15.8853 13.0719 16.3113L13.0314 16.477L12.8106 17.3607C12.7436 17.6288 12.693 17.9002 12.6593 18.1737C12.6256 18.4472 12.6087 18.7228 12.6087 18.9993C12.6087 23.4509 16.2175 27.0593 20.6687 27.0593H21.0952C22.3575 27.0593 23.5519 26.7688 24.6155 26.2515C23.9329 26.4394 23.2142 26.5403 22.4719 26.5403Z" fill="#E5E1E5"/>
<path d="M24.4351 20.8428V21.308C24.4351 21.968 23.8999 22.7144 23.2395 22.7144H19.8462C19.6223 22.7144 19.4407 22.5328 19.4407 22.3089V20.8428H20.1474H23.9463H24.4351Z" fill="#E5E1E5"/>
<path d="M21.1007 21.7788C20.8767 21.7788 20.6951 21.5972 20.6951 21.3733V20.843H20.1474H19.4407V22.3091C19.4407 22.533 19.6222 22.7146 19.8462 22.7146H23.2396C23.7441 22.7146 24.1753 22.2788 24.3508 21.7788H21.1007Z" fill="#D7D0D6"/>
<path d="M25.1419 19.3926V19.8578C25.1419 20.5178 24.6067 21.0535 23.9463 21.0535H20.1474H19.4407V19.3926H21.1547H24.9535H25.1419Z" fill="#E5E1E5"/>
<path d="M21.4019 20.3399C21.0115 20.3399 20.6951 20.0235 20.6951 19.6331V19.3926H19.4407V21.0535H20.1474H23.9463C24.435 21.0535 24.8549 20.7599 25.0404 20.3399H21.4019Z" fill="#D7D0D6"/>
<path d="M26.1491 17.7314V18.1967C26.1491 18.8571 25.6139 19.3928 24.9535 19.3928H21.1547H19.4407V17.7314H21.6503H26.1491Z" fill="#E5E1E5"/>
<path d="M22.4091 18.6647H21.6284C21.1129 18.6647 20.6951 18.2469 20.6951 17.7314H19.4407V19.3928H21.1547H24.9535C25.4478 19.3928 25.8719 19.0926 26.054 18.6647H22.4091Z" fill="#D7D0D6"/>
<path d="M13.7258 13.839C14.0014 13.839 14.2248 13.6155 14.2248 13.3399C14.2248 13.0643 14.0014 12.8408 13.7258 12.8408C13.4501 12.8408 13.2267 13.0643 13.2267 13.3399C13.2267 13.6155 13.4501 13.839 13.7258 13.839Z" fill="black"/>
<path d="M29.8552 17.265C29.7043 17.0782 29.4641 16.9898 29.2278 17.0343L27.2074 17.4159H18.8761L17.0525 15.3681C17.0139 15.3247 16.9926 15.2688 16.9926 15.2107V14.0912C16.9926 13.5013 16.8126 12.9427 16.479 12.4737C16.7402 12.3736 16.9761 12.2128 17.1695 11.9979C17.4979 11.6333 17.6601 11.1616 17.6262 10.6698C17.5654 9.78915 16.8562 9.07363 15.9764 9.00544C15.4558 8.96503 14.945 9.15105 14.5744 9.51555C14.4502 9.63769 14.2911 9.70495 14.1264 9.70495H14.0765C13.9118 9.70495 13.7526 9.63769 13.6285 9.51555C13.258 9.15109 12.7468 8.96507 12.2267 9.00549C11.3469 9.07363 10.6376 9.78911 10.5768 10.6698C10.542 11.174 10.7121 11.6543 11.0554 12.0223C11.2795 12.2623 11.565 12.4341 11.8761 12.5232C11.8142 12.6138 11.7576 12.7082 11.7064 12.8058L10.3481 13.8445C10.074 14.0541 9.94816 14.3941 10.0198 14.7317C10.0914 15.0693 10.3445 15.3288 10.6802 15.409L11.0537 15.4983V16.8294L10.7526 17.1485C10.517 17.3981 10.3954 17.7244 10.4102 18.0673C10.4251 18.4102 10.5744 18.7247 10.8306 18.9531C11.0697 19.1662 11.3692 19.2719 11.6682 19.2719C11.8849 19.2719 12.1012 19.216 12.2942 19.1056C12.3013 19.6635 12.3632 20.2214 12.48 20.7655C12.5118 20.9139 12.6429 21.0153 12.7887 21.0153C12.8106 21.0153 12.833 21.013 12.8554 21.0082C13.026 20.9716 13.1347 20.8035 13.0981 20.6329C12.9831 20.0977 12.9249 19.5481 12.9249 18.9993C12.9249 18.4731 12.9896 17.9475 13.1172 17.4371L13.2906 16.7435C13.4277 16.79 13.5697 16.8269 13.7162 16.852C13.8883 16.8814 14.0516 16.7658 14.081 16.5937C14.1104 16.4217 13.9948 16.2583 13.8227 16.2289C12.7471 16.045 11.9738 15.0818 12.0241 13.9884C12.075 12.8819 12.9817 11.9752 14.0882 11.9243C14.6886 11.8967 15.2565 12.1091 15.6891 12.5223C16.122 12.9357 16.3604 13.4929 16.3604 14.0913V15.2107C16.3604 15.424 16.4385 15.6293 16.5804 15.7886L18.4982 17.9422C18.5583 18.0096 18.6441 18.0481 18.7343 18.0481H25.8329V18.1973C25.8329 18.6823 25.4384 19.0769 24.9534 19.0769H23.9723C23.7977 19.0769 23.6562 19.2184 23.6562 19.393C23.6562 19.5675 23.7977 19.709 23.9723 19.709H24.8257V19.8582C24.8257 20.3432 24.4312 20.7378 23.9462 20.7378H20.1474H19.9363C19.7617 20.7378 19.6202 20.8793 19.6202 21.0538C19.6202 21.2284 19.7617 21.3699 19.9363 21.3699H20.1474H23.9462H24.119V21.5191C24.119 22.0041 23.7244 22.3987 23.2395 22.3987H19.4407C19.2661 22.3987 19.1246 22.5402 19.1246 22.7148C19.1246 22.8893 19.2661 23.0308 19.4407 23.0308H23.2395C24.073 23.0308 24.7512 22.3527 24.7512 21.5191V21.1369C25.1754 20.8688 25.4579 20.3961 25.4579 19.8582V19.6221C26.0441 19.4139 26.4651 18.854 26.4651 18.1973V18.0481H27.237C27.2566 18.0481 27.2763 18.0463 27.2956 18.0426L29.3452 17.6555C29.3502 17.6546 29.3564 17.6534 29.3635 17.6622C29.3707 17.671 29.3683 17.6766 29.3662 17.6816L28.8635 18.8767C28.8472 18.9155 28.8388 18.9572 28.8388 18.9993C28.8388 23.2692 25.365 26.743 21.0951 26.743H20.6686C19.09 26.743 17.5715 26.271 16.2772 25.3781C15.0125 24.5056 14.0438 23.2932 13.4756 21.8721C13.4109 21.7101 13.2269 21.6312 13.0648 21.696C12.9027 21.7608 12.8238 21.9447 12.8887 22.1068C13.5031 23.6439 14.5507 24.955 15.9182 25.8984C17.1582 26.7539 18.5882 27.2519 20.0849 27.3548V28.5768H19.0648C18.4792 28.5768 18.0028 29.0532 18.0028 29.6388V30.0348C18.0028 30.3116 18.2279 30.5368 18.5047 30.5368H19.6055H20.9203H22.207C22.841 30.5368 23.3569 30.0209 23.3569 29.3869V27.0647C26.8604 26.081 29.442 22.8706 29.4707 19.0636L29.9489 17.9267C30.0421 17.7054 30.0061 17.4518 29.8552 17.265ZM10.6382 14.6004C10.6282 14.5533 10.6174 14.4344 10.7321 14.3467L11.4014 13.8349C11.3976 13.8761 11.3946 13.9176 11.3927 13.9594C11.3767 14.3081 11.4258 14.6464 11.5294 14.962L10.8271 14.7942C10.6866 14.7606 10.6482 14.6475 10.6382 14.6004ZM12.7081 16.467L12.504 17.2837C12.4259 17.5959 12.3701 17.9135 12.3353 18.2332L12.112 18.4565C11.8772 18.6912 11.499 18.7021 11.2512 18.4812C11.1236 18.3674 11.0492 18.2108 11.0418 18.04C11.0345 17.8692 11.095 17.7067 11.2123 17.5824L11.5996 17.172C11.655 17.1133 11.6859 17.0357 11.6859 16.955V15.6493L11.9007 15.7007C12.115 16.0057 12.389 16.2672 12.7081 16.467ZM14.0592 11.2928C13.4243 11.322 12.8405 11.5697 12.3817 11.9609C12.3775 11.9609 12.3732 11.9611 12.3691 11.9611C12.0428 11.9611 11.7404 11.8296 11.5176 11.5909C11.2951 11.3525 11.1849 11.0408 11.2075 10.7133C11.2469 10.1431 11.706 9.67987 12.2756 9.63575C12.6129 9.60941 12.9451 9.73002 13.1853 9.96628C13.4285 10.2054 13.745 10.3371 14.0766 10.3371H14.1265C14.4581 10.3371 14.7746 10.2054 15.0178 9.96628C15.258 9.73006 15.5896 9.60953 15.9276 9.63575C16.4972 9.67987 16.9562 10.1432 16.9956 10.7133C17.0176 11.0327 16.9126 11.3387 16.6998 11.575C16.5137 11.7817 16.2672 11.912 15.9963 11.9494C15.4561 11.4924 14.7757 11.2598 14.0592 11.2928ZM22.7248 29.3869C22.7248 29.6724 22.4925 29.9046 22.207 29.9046H21.9466C22.0255 29.7489 22.0702 29.5731 22.0702 29.3869V29.192C22.0702 29.0174 21.9287 28.8759 21.7541 28.8759C21.5795 28.8759 21.4381 29.0174 21.4381 29.192V29.3869C21.4381 29.6724 21.2058 29.9046 20.9203 29.9046H19.6056H18.635V29.6388C18.635 29.4017 18.8278 29.2089 19.0649 29.2089H20.1619C20.468 29.2089 20.7171 28.9598 20.7171 28.6537V27.3752H21.0952C21.2101 27.3752 21.3243 27.3722 21.4381 27.3676V27.845C21.4381 28.0195 21.5796 28.1611 21.7542 28.1611C21.9288 28.1611 22.0703 28.0195 22.0703 27.845V27.3181C22.2911 27.2924 22.5094 27.2582 22.7248 27.2156V29.3869H22.7248Z" fill="black"/>
<path d="M22.6252 19.7091C22.7998 19.7091 22.9413 19.5675 22.9413 19.393C22.9413 19.2184 22.7998 19.0769 22.6252 19.0769H21.1546C20.98 19.0769 20.8385 19.2184 20.8385 19.393C20.8385 19.5675 20.98 19.7091 21.1546 19.7091H22.6252Z" fill="black"/>
<path d="M18.3189 23.0308C18.4935 23.0308 18.635 22.8893 18.635 22.7148C18.635 22.5402 18.4935 22.3987 18.3189 22.3987H17.6488C17.4742 22.3987 17.3328 22.5402 17.3328 22.7148C17.3328 22.8893 17.4742 23.0308 17.6488 23.0308H18.3189Z" fill="black"/>
</svg>
