<svg width="24" height="25" viewBox="0 0 24 25" fill="none" xmlns="http://www.w3.org/2000/svg">
<path fill-rule="evenodd" clip-rule="evenodd" d="M3.5 11.3224C3.5 7.03703 6.87138 3.58789 11 3.58789C15.1286 3.58789 18.5 7.03703 18.5 11.3224C18.5 13.4298 17.6847 15.335 16.3649 16.7272C16.3428 16.7426 16.3216 16.76 16.3016 16.7794C16.2745 16.8058 16.251 16.8344 16.2312 16.8648C14.8779 18.2226 13.0306 19.0569 11 19.0569C6.87138 19.0569 3.5 15.6078 3.5 11.3224ZM16.6463 17.8517C15.1469 19.2225 13.1708 20.0569 11 20.0569C6.29206 20.0569 2.5 16.1326 2.5 11.3224C2.5 6.51217 6.29206 2.58789 11 2.58789C15.7079 2.58789 19.5 6.51217 19.5 11.3224C19.5 13.5508 18.6861 15.5891 17.3444 17.1352L21.3586 21.2671C21.5511 21.4652 21.5465 21.7817 21.3484 21.9742C21.1504 22.1666 20.8338 22.162 20.6414 21.964L16.6463 17.8517Z" fill="white"/>
</svg>
