<svg width="40" height="40" viewBox="0 0 40 40" fill="none" xmlns="http://www.w3.org/2000/svg">
<circle cx="20" cy="20" r="19.5" fill="white" stroke="black"/>
<path d="M29.5651 21.6233C29.5651 14.8918 24.3477 7.75391 20 7.75391C15.6521 7.75391 10.4349 14.8918 10.4349 21.6233C10.4349 28.3544 14.7171 32.1305 20 32.1305C25.2826 32.1305 29.5651 28.3544 29.5651 21.6233Z" fill="white"/>
<path d="M29.5652 21.6233H30.0001C29.9973 18.1521 28.6641 14.6198 26.7724 11.9278C25.8248 10.582 24.7361 9.44522 23.5845 8.63406C22.4336 7.82554 21.2124 7.33518 20.0001 7.3335C18.7875 7.33518 17.5657 7.82554 16.4154 8.63406C14.6893 9.85093 13.0991 11.7989 11.9251 14.09C10.7531 16.3819 10.0011 19.0195 10.0001 21.6233C9.99832 25.0734 11.1017 27.8152 12.9193 29.6883C14.7344 31.5632 17.2523 32.5523 20.0001 32.5501C22.7478 32.5523 25.265 31.5629 27.0806 29.6883C28.8977 27.8152 30.0011 25.0734 30.0001 21.6233H29.1303C29.1288 24.904 28.0904 27.4159 26.4465 29.1136C24.7998 30.8097 22.5349 31.7079 20.0001 31.7101C17.465 31.7079 15.1998 30.8097 13.5536 29.1136C11.909 27.4159 10.8713 24.904 10.8696 21.6233C10.8668 18.3625 12.1428 14.9601 13.9465 12.4003C14.8466 11.1205 15.8773 10.052 16.9269 9.31416C17.9775 8.57417 19.0383 8.1728 20.0001 8.174C20.9611 8.17256 22.0224 8.57417 23.0725 9.31416C24.648 10.4204 26.1763 12.2729 27.2951 14.4628C28.4163 16.6527 29.1311 19.1775 29.1303 21.6233H29.5652Z" fill="#0A0A0A"/>
<path d="M10.8804 22.1958C10.9956 25.1973 12.0059 27.5164 13.5533 29.1134C15.1995 30.8096 17.4649 31.7078 19.9997 31.71C22.5348 31.7078 24.7995 30.8096 26.4462 29.1134C27.9933 27.5164 29.0039 25.1973 29.1191 22.1958C27.8958 26.711 24.2768 29.1882 19.9997 29.1882C15.7227 29.1882 12.1039 26.711 10.8804 22.1958Z" fill="#EEEEF0"/>
<path d="M10.5135 20.1921C10.4637 20.6695 10.4349 21.1474 10.4349 21.6233C10.4349 28.3543 14.7171 32.1305 20 32.1305C25.2826 32.1305 29.5651 28.3543 29.5651 21.6233H29.2591C29.2168 21.8178 29.1701 22.0085 29.1193 22.1959C29.0041 25.1974 27.9936 27.5164 26.4464 29.1135C24.7997 30.8097 22.5351 31.7079 20 31.7101C17.4652 31.7079 15.1998 30.8097 13.5536 29.1135C12.0059 27.5164 10.9956 25.1974 10.8804 22.1959C10.7103 21.567 10.5864 20.8989 10.5135 20.1921ZM29.4863 20.1921C29.4353 20.6885 29.3589 21.1656 29.2591 21.6233H29.5651C29.5651 21.1474 29.5363 20.6695 29.4863 20.1921Z" fill="#0A0A0A"/>
<path d="M17.445 21.935C18.017 22.5353 18.9512 22.8804 19.9998 22.8837C21.0382 22.8806 21.9639 22.542 22.5376 21.9526C22.7008 21.7825 22.6906 21.5165 22.5147 21.3588C22.3388 21.2008 22.0637 21.2106 21.9005 21.3809C21.5544 21.7484 20.8364 22.0468 20 22.0435C19.1549 22.0471 18.4312 21.7421 18.0886 21.3696C17.9272 21.1977 17.652 21.1852 17.4744 21.3412C17.2965 21.4973 17.2836 21.7633 17.445 21.935Z" fill="#0A0A0A"/>
<path d="M16.9565 19.1015C16.9565 19.5656 16.5671 19.942 16.087 19.942C15.6066 19.942 15.2172 19.5656 15.2172 19.1015C15.2172 18.6371 15.6066 18.2607 16.087 18.2607C16.5671 18.2607 16.9565 18.6371 16.9565 19.1015Z" fill="#0A0A0A"/>
<path d="M24.7824 19.1015C24.7824 19.5656 24.393 19.942 23.9129 19.942C23.4327 19.942 23.0434 19.5656 23.0434 19.1015C23.0434 18.6371 23.4327 18.2607 23.9129 18.2607C24.393 18.2607 24.7824 18.6371 24.7824 19.1015Z" fill="#0A0A0A"/>
<path d="M26.0867 21.623C26.0867 22.0874 25.6974 22.4637 25.2172 22.4637C24.7368 22.4637 24.3477 22.0874 24.3477 21.623C24.3477 21.1588 24.7368 20.7825 25.2172 20.7825C25.6974 20.7825 26.0867 21.1588 26.0867 21.623Z" fill="#FFD578"/>
<path d="M15.6521 21.623C15.6521 22.0874 15.2628 22.4637 14.7826 22.4637C14.3022 22.4637 13.9131 22.0874 13.9131 21.623C13.9131 21.1588 14.3022 20.7825 14.7826 20.7825C15.2628 20.7825 15.6521 21.1588 15.6521 21.623Z" fill="#FFD578"/>
</svg>
