<svg width="40" height="40" viewBox="0 0 40 40" fill="none" xmlns="http://www.w3.org/2000/svg">
<circle cx="20" cy="20" r="19.5" fill="white" stroke="black"/>
<path d="M28.0048 21.7189V25.0367L15.1041 27.4636L11.8868 24.2463L12.138 21.7189C12.154 21.4031 12.1779 21.0908 12.2086 20.7824C12.8037 14.8216 16.0973 10.2615 20.0714 10.2615C24.0454 10.2615 27.339 14.8216 27.9342 20.7824C27.9649 21.0908 27.9887 21.4031 28.0048 21.7189Z" fill="white"/>
<path d="M15.3239 20.7826L15.1775 23.3099L16.8533 26.1851L15.0337 26.5273L11.8163 23.3099L12.0671 20.7826C12.3903 14.4336 15.7527 9.42566 19.8758 9.3269C17.4723 9.42566 15.5124 14.4332 15.3239 20.7826Z" fill="white"/>
<path d="M19.9677 9.32538C19.9461 9.32538 19.9244 9.32538 19.9028 9.32582C19.9179 9.32495 19.9335 9.32495 19.9487 9.32495C19.9552 9.32495 19.9612 9.32495 19.9677 9.32538Z" fill="#ED1C24"/>
<path d="M27.8608 19.8206C29.0886 17.6653 30.2457 15.6615 29.3708 14.7866C28.4959 13.9117 26.9679 15.7578 26.9679 15.7578" fill="#FFEC40"/>
<path d="M27.8608 19.8205L27.5646 18.4726C28.4568 16.8903 29.1945 15.4505 28.9532 14.5635C29.1018 14.589 29.2434 14.6588 29.3712 14.7865C30.2461 15.6615 29.0888 17.6652 27.8608 19.8205Z" fill="#ED1C24"/>
<path d="M12.1409 19.8206C10.913 17.6653 9.75591 15.6615 10.6308 14.7866C11.5057 13.9117 13.0337 15.7578 13.0337 15.7578" fill="#FFEC40"/>
<path d="M12.1409 19.8205L12.4372 18.4726C11.5449 16.8903 10.8073 15.4505 11.0485 14.5635C10.8999 14.589 10.7583 14.6588 10.6305 14.7865C9.75563 15.6615 10.913 17.6652 12.1409 19.8205Z" fill="#ED1C24"/>
<path d="M27.9343 20.7823V24.1002L15.0336 26.527L11.8163 23.3097L12.0675 20.7823C12.0835 20.4666 12.1074 20.1543 12.1381 19.8459L13.5172 20.8542L17.153 18.8787L20.0009 20.7979L22.8484 18.8787L26.4846 20.8542L27.8637 19.8459C27.8944 20.1543 27.9182 20.4666 27.9343 20.7823Z" fill="#ED1C24"/>
<path d="M29.0907 19.9369C29.0907 25.7977 25.021 30.5488 20.0009 30.5488C14.9808 30.5488 10.911 25.7977 10.911 19.9369L13.5172 21.8422L17.153 19.8667L20.0009 21.7859L22.8483 19.8667L26.4845 21.8422L29.0907 19.9369Z" fill="white"/>
<path d="M20.0009 30.5487C14.9808 30.5487 10.911 25.7976 10.911 19.9368L13.5172 21.8421L15.5365 20.745C15.7111 26.2281 17.6429 30.5487 20.0009 30.5487Z" fill="white"/>
<path d="M21.511 18.3674L20.4256 19.1631C20.2995 19.2559 20.1501 19.3024 20.0008 19.3024C19.8519 19.3024 19.7031 19.2564 19.5769 19.1641C19.5764 19.1636 19.5759 19.1636 19.5754 19.1631L18.4901 18.3674C18.4885 18.3659 18.4865 18.3649 18.485 18.3638C18.483 18.3623 18.4815 18.3608 18.4794 18.3593C18.1434 18.1035 18.099 17.6135 18.3856 17.3012C18.3866 17.3002 18.3876 17.2987 18.3886 17.2976L19.474 16.13C19.4745 16.1295 19.475 16.129 19.4755 16.1285C19.6178 15.9766 19.809 15.9004 20.0008 15.9004C20.1925 15.9004 20.3837 15.9766 20.526 16.1285C20.5265 16.129 20.527 16.1295 20.5275 16.13L21.6129 17.2976C21.6139 17.2986 21.6144 17.2991 21.6149 17.3001C21.9056 17.6155 21.8572 18.1136 21.511 18.3674Z" fill="#FF4370"/>
<path d="M20.0009 15.9004V19.3023C19.8521 19.3023 19.7032 19.2564 19.5771 19.164C19.5765 19.1635 19.5761 19.1635 19.5755 19.163L18.4902 18.3673C18.4887 18.3658 18.4866 18.3648 18.4851 18.3637C18.144 18.1089 18.0976 17.6149 18.3857 17.3011C18.3867 17.3001 18.3877 17.2986 18.3887 17.2976L19.4741 16.13C19.4746 16.1294 19.4751 16.129 19.4756 16.1284C19.6179 15.9766 19.8091 15.9004 20.0009 15.9004Z" fill="#E52E62"/>
<path d="M23.9394 18.9069C24.4772 18.9069 24.9131 18.6037 24.9131 18.2296C24.9131 17.8555 24.4772 17.5522 23.9394 17.5522C23.4016 17.5522 22.9657 17.8555 22.9657 18.2296C22.9657 18.6037 23.4016 18.9069 23.9394 18.9069Z" fill="#ED1C24"/>
<path d="M15.8112 18.9069C16.349 18.9069 16.7849 18.6037 16.7849 18.2296C16.7849 17.8555 16.349 17.5522 15.8112 17.5522C15.2735 17.5522 14.8375 17.8555 14.8375 18.2296C14.8375 18.6037 15.2735 18.9069 15.8112 18.9069Z" fill="#ED1C24"/>
<path d="M21.851 17.0763L20.7657 15.9087C20.7642 15.9071 20.7622 15.9051 20.7603 15.9031C20.5635 15.6948 20.287 15.5754 20.0009 15.5754C19.714 15.5754 19.4366 15.6955 19.2422 15.9025C19.2402 15.9045 19.2382 15.9066 19.2362 15.9087L18.1509 17.0764C18.1481 17.0794 18.1452 17.0826 18.1423 17.0858C17.947 17.3012 17.8498 17.5903 17.8756 17.88C17.9013 18.1684 18.0468 18.4346 18.2767 18.6129C18.2809 18.6163 18.2852 18.6198 18.2898 18.6233C18.2935 18.626 18.2971 18.6286 18.3009 18.6312L19.3835 19.425C19.3856 19.4265 19.3878 19.4281 19.39 19.4296C19.5686 19.5589 19.7797 19.6271 20.0009 19.6271C20.2248 19.6271 20.4384 19.5571 20.6178 19.425L21.7032 18.6292C21.9427 18.4536 22.0966 18.1834 22.1252 17.8879C22.1536 17.5959 22.0572 17.3047 21.8606 17.0873C21.8575 17.0835 21.8543 17.0798 21.851 17.0763ZM19.7092 16.3542C19.7104 16.3529 19.7117 16.3516 19.7127 16.3505C19.7884 16.2697 19.8908 16.2252 20.0009 16.2252C20.1111 16.2252 20.2134 16.2697 20.2891 16.3505C20.2902 16.3516 20.2915 16.353 20.2929 16.3544L21.2438 17.3774C20.8394 17.4874 20.423 17.5431 20.0009 17.5431C20.0008 17.5431 20.0008 17.5431 20.0006 17.5431C19.5787 17.5431 19.1623 17.4875 18.7579 17.3776L19.7092 16.3542ZM21.3191 18.1052L20.2332 18.9013C20.1657 18.951 20.0853 18.9773 20.0009 18.9773C19.9167 18.9773 19.8365 18.9512 19.769 18.9018C19.7671 18.9004 19.7653 18.8991 19.7634 18.8978L18.6883 18.1096C18.6852 18.1072 18.6821 18.1048 18.6789 18.1025C18.678 18.1019 18.6772 18.1012 18.6764 18.1006C18.6404 18.0732 18.6104 18.0406 18.5864 18.0043C19.0466 18.1295 19.5204 18.1928 20.0006 18.1928C20.0007 18.1928 20.0009 18.1928 20.0009 18.1928C20.4812 18.1928 20.9549 18.1294 21.4151 18.0042C21.3897 18.0426 21.3577 18.0769 21.3191 18.1052Z" fill="black"/>
<path d="M29.7197 16.9079C29.8699 16.506 30.327 15.2833 29.6006 14.5569C29.3701 14.3264 29.0774 14.2123 28.7534 14.2278C28.1228 14.2574 27.4816 14.7714 27.0892 15.1528C26.704 14.1711 26.2318 13.2658 25.6801 12.4645C24.142 10.2304 22.1251 9 20.0008 9C18.356 9 16.7691 9.73621 15.4116 11.1291C15.2864 11.2575 15.289 11.4632 15.4175 11.5884C15.546 11.7137 15.7516 11.711 15.8769 11.5826C17.1093 10.318 18.5353 9.64971 20.0008 9.64971C21.9049 9.64971 23.7317 10.7802 25.1449 12.8329C26.5515 14.8761 27.4202 17.6374 27.5996 20.6245L26.4588 21.4585L23.0034 19.5812C22.8969 19.5233 22.7672 19.5295 22.6667 19.5972L20.0008 21.3941L17.3345 19.5972C17.2341 19.5295 17.1043 19.5234 16.9979 19.5812L13.5428 21.4585L12.4021 20.6246C12.5864 17.5526 13.4936 14.7362 14.9656 12.6778C15.0699 12.5319 15.0362 12.329 14.8903 12.2246C14.7443 12.1203 14.5414 12.1539 14.4371 12.2999C13.8349 13.142 13.3234 14.1033 12.9116 15.152C12.5192 14.7707 11.8784 14.2574 11.2483 14.2278C10.9244 14.2125 10.6317 14.3264 10.4011 14.5569C10.1318 14.8262 9.99685 15.1873 10.0001 15.6301C10.0027 15.9893 10.0949 16.4073 10.282 16.9079C10.6131 17.7937 11.1926 18.8126 11.8072 19.8913C11.7983 19.9845 11.79 20.0778 11.7823 20.1715L11.1027 19.6746C11.0039 19.6024 10.873 19.5918 10.7639 19.6472C10.6548 19.7026 10.5861 19.8145 10.5861 19.9369C10.5861 22.8489 11.5594 25.5888 13.3267 27.6519C15.1062 29.7294 17.4765 30.8736 20.0008 30.8736C22.349 30.8736 24.5977 29.8644 26.3328 28.0319C26.4561 27.9016 26.4505 27.696 26.3202 27.5727C26.1899 27.4493 25.9843 27.455 25.8609 27.5852C24.2499 29.2867 22.1687 30.2238 20.0008 30.2238C15.3545 30.2238 11.541 25.9589 11.2533 20.5894L13.3254 22.1044C13.4268 22.1785 13.5619 22.1875 13.6723 22.1276L17.1348 20.2461L19.8193 22.0552C19.929 22.1292 20.0727 22.1292 20.1824 22.0552L22.8664 20.2461L26.3294 22.1276C26.4398 22.1876 26.5748 22.1785 26.6762 22.1044L28.7481 20.5897C28.631 22.7371 27.9394 24.8035 26.771 26.4691C26.668 26.616 26.7036 26.8185 26.8504 26.9216C26.9973 27.0246 27.1999 26.9891 27.3029 26.8422C28.6653 24.9001 29.4156 22.4477 29.4156 19.9368C29.4156 19.8145 29.3469 19.7025 29.2378 19.6471C29.1287 19.5917 28.9977 19.6023 28.899 19.6745L28.2194 20.1714C28.2118 20.0777 28.2034 19.9843 28.1945 19.8912C28.8091 18.8125 29.3886 17.7936 29.7197 16.9079ZM10.8605 15.0163C10.9623 14.9145 11.0753 14.8702 11.2173 14.8768C11.7091 14.8995 12.3458 15.4838 12.6637 15.8288C12.344 16.7684 12.1015 17.7691 11.9418 18.8103C11.023 17.1673 10.2643 15.6126 10.8605 15.0163ZM28.7839 14.8768C28.9258 14.8701 29.0393 14.9144 29.1411 15.0163C29.7374 15.6126 28.9785 17.1676 28.0596 18.8108C27.8998 17.771 27.6566 16.7705 27.3369 15.8304C27.6484 15.4938 28.2946 14.8998 28.7839 14.8768Z" fill="black"/>
<path d="M15.3271 16.0115C15.2003 16.1384 15.2003 16.3441 15.3271 16.4709C15.3906 16.5344 15.4737 16.5661 15.5568 16.5661C15.64 16.5661 15.7231 16.5344 15.7865 16.4709C16.2458 16.0116 16.9932 16.0116 17.4525 16.4709C17.5793 16.5978 17.785 16.5978 17.9119 16.4709C18.0387 16.3441 18.0387 16.1384 17.9119 16.0116C17.1993 15.2989 16.0398 15.2989 15.3271 16.0115Z" fill="black"/>
<path d="M22.5488 16.4709C23.0081 16.0116 23.7554 16.0116 24.2147 16.4709C24.2781 16.5344 24.3613 16.5661 24.4444 16.5661C24.5275 16.5661 24.6107 16.5344 24.6741 16.4709C24.801 16.3441 24.801 16.1384 24.6741 16.0115C23.9615 15.2989 22.802 15.2989 22.0894 16.0115C21.9625 16.1384 21.9625 16.3441 22.0894 16.4709C22.2162 16.5978 22.4219 16.5978 22.5488 16.4709Z" fill="black"/>
</svg>
