<svg width="1600" height="274" viewBox="0 0 1600 274" fill="none" xmlns="http://www.w3.org/2000/svg">
<path d="M1608.8 78.8274L1589.37 75.6044C1569.8 72.0631 1530.4 66.1352 1493.43 89.6082C1456.37 113.412 1421.23 167.459 1382.91 186.94C1345.73 206.681 1306.57 190.975 1265.84 167.464C1226.32 143.397 1186.14 111.474 1147.23 100.392C1107.57 89.8405 1069.52 100.111 1032.1 115.472C993.98 130.385 956.368 150.395 918.432 156.59C880.047 162.811 840.755 156.876 801.851 145.794C762.637 135.217 722.687 119.556 684.056 113.34C645.294 106.807 607.242 108.94 567.957 111.143C529.793 113.282 491.63 115.422 453.313 134.902C416.249 154.637 379.883 190.852 342.22 201.914C303.772 213.02 264.271 197.333 225.639 191.118C186.316 184.616 147.704 186.781 110.268 201.899C72.3833 217.042 35.0018 245.177 16.6478 259.225L-1.70616 273.273L-15.0001 65.7102L7.30092 90.498C26.607 89.4156 65.556 87.2319 103.719 85.0924C141.995 82.9465 180.046 80.8132 219.332 78.6107C257.495 76.4711 295.658 74.3315 334.944 72.129C372.995 69.9957 411.271 67.8498 449.434 65.7102C488.383 63.5266 526.883 61.3681 565.046 59.2286C603.883 57.0512 642.495 54.8865 680.659 52.7469C719.271 50.5821 758.108 48.4048 796.271 46.2652C834.771 44.1067 873.72 41.9231 911.883 39.7835C950.159 37.6376 988.21 35.5043 1027.5 33.3018C1065.66 31.1622 1103.82 29.0226 1143.11 26.8201C1181.16 24.6868 1219.43 22.541 1257.6 20.4014C1296.55 18.2177 1335.05 16.0593 1373.21 13.9197C1412.05 11.7423 1450.66 9.57759 1488.82 7.43801C1527.43 5.27325 1566.27 3.09591 1585.35 2.02612L1604.43 0.956324L1608.8 78.8274Z" fill="#2F3C91"/>
</svg>
